<svg width="997" height="252" viewBox="0 0 997 252" fill="none" xmlns="http://www.w3.org/2000/svg">
<g clip-path="url(#clip0_387_585)">
<path d="M247.842 242.464V242.931H249.146V246.722H249.708V242.931H251.017V242.464H247.842Z" fill="#951F39"/>
<path d="M255.11 244.853C255.081 244.257 255.043 243.545 255.048 243.016H255.027C254.881 243.512 254.702 244.045 254.485 244.632L253.731 246.699H253.31L252.618 244.67C252.414 244.07 252.239 243.52 252.118 243.016H252.106C252.093 243.545 252.064 244.257 252.023 244.899L251.91 246.724H251.381L251.681 242.466H252.389L253.118 244.524C253.298 245.049 253.443 245.516 253.552 245.962H253.573C253.677 245.528 253.831 245.062 254.023 244.524L254.789 242.466H255.493L255.76 246.724H255.218L255.11 244.853Z" fill="#951F39"/>
<path d="M251.989 239.204C248.843 239.204 246.289 241.746 246.289 244.867C246.289 247.988 248.843 250.529 251.989 250.529C255.13 250.529 257.689 247.988 257.689 244.867C257.689 241.746 255.13 239.204 251.989 239.204ZM251.989 251.113C248.522 251.113 245.701 248.313 245.701 244.867C245.701 241.425 248.522 238.621 251.989 238.621C255.455 238.621 258.276 241.425 258.276 244.867C258.276 248.313 255.455 251.113 251.989 251.113Z" fill="#951F39"/>
<path d="M249.148 242.932H247.844V242.465H251.019V242.932H249.706V246.723H249.148V242.932Z" fill="#951F39"/>
<path d="M255.11 244.853C255.081 244.257 255.043 243.545 255.048 243.016H255.027C254.881 243.512 254.702 244.045 254.485 244.632L253.731 246.699H253.31L252.618 244.67C252.414 244.07 252.239 243.52 252.118 243.016H252.106C252.093 243.545 252.064 244.257 252.023 244.899L251.91 246.724H251.381L251.681 242.466H252.389L253.118 244.524C253.298 245.049 253.443 245.516 253.552 245.962H253.573C253.677 245.528 253.831 245.062 254.023 244.524L254.789 242.466H255.493L255.76 246.724H255.218L255.11 244.853Z" fill="#951F39"/>
<path d="M251.989 239.204C248.843 239.204 246.289 241.746 246.289 244.867C246.289 247.988 248.843 250.529 251.989 250.529C255.13 250.529 257.689 247.988 257.689 244.867C257.689 241.746 255.13 239.204 251.989 239.204ZM251.989 251.113C248.522 251.113 245.701 248.313 245.701 244.867C245.701 241.425 248.522 238.621 251.989 238.621C255.455 238.621 258.276 241.425 258.276 244.867C258.276 248.313 255.455 251.113 251.989 251.113Z" fill="#951F39"/>
<path d="M44.1867 36.7072C44.9867 36.7072 45.3867 35.9114 45.3867 35.5156C45.3867 34.7197 44.5867 33.9239 44.1867 34.3197L37.3867 35.1156V36.3072C40.0034 35.4989 42.0367 36.2656 44.1867 36.7072Z" fill="#00754A"/>
<path d="M41.3859 40.6812C42.1859 40.6812 42.5859 39.8854 42.5859 39.4895C42.5859 38.6937 42.1859 38.2979 41.3859 38.2979L34.5859 39.4895V40.6812C37.1859 39.6687 39.2651 40.3354 41.3859 40.6812Z" fill="#00754A"/>
<path d="M38.9871 44.6561C39.7871 44.6561 40.1871 43.8602 40.1871 43.4644C40.1871 42.6686 39.3871 42.2686 38.5871 42.2686L31.7871 43.8602L32.1871 44.6561C34.8829 43.6269 36.8788 44.3144 38.9871 44.6561Z" fill="#00754A"/>
<path d="M36.1863 49.0281C36.9863 49.0281 37.3863 48.6281 37.3863 47.8365C36.9863 47.0406 36.5863 46.6406 35.7863 46.6406L28.9863 48.6281L29.3863 49.4281C31.778 48.6823 34.1988 48.9531 36.1863 49.0281Z" fill="#00754A"/>
<path d="M33.7859 53.4002C34.1859 53.4002 34.5859 52.6044 34.5859 51.8085C34.5859 51.4127 33.7859 51.0127 32.9859 51.0127L26.5859 53.8002L26.9859 54.5919C29.4026 53.5794 31.5401 53.1585 33.7859 53.4002Z" fill="#00754A"/>
<path d="M30.5848 58.5669C30.9848 58.5669 31.3848 57.7711 31.3848 57.3753C31.3848 56.5794 30.5848 56.1836 29.7848 56.1836L23.3848 58.9669L23.7848 59.7586C26.2014 58.7503 28.3389 58.3253 30.5848 58.5669Z" fill="#00754A"/>
<path d="M28.5848 63.3377C29.3848 63.3377 29.7848 62.5419 29.3848 61.746C29.3848 61.3502 28.5848 60.9502 27.7848 60.9502L21.3848 63.3377L21.7848 64.5294C24.1764 63.5127 26.3598 63.096 28.5848 63.3377Z" fill="#00754A"/>
<path d="M26.9852 68.1072C27.7852 67.7072 28.1852 67.3113 27.7852 66.5155C27.7852 65.7197 26.9852 65.3238 26.1852 65.7197L19.7852 68.1072L20.1852 68.903C22.5727 68.1072 24.6518 67.8072 26.9852 68.1072Z" fill="#00754A"/>
<path d="M25.3836 72.4786C25.7836 72.0786 26.1836 71.287 25.7836 70.4911C25.7836 70.0911 24.9836 69.6953 24.1836 69.6953L18.1836 72.8745L18.5836 73.6703C20.9919 72.662 22.9961 72.2203 25.3836 72.4786Z" fill="#00754A"/>
<path d="M23.384 77.6455C24.184 77.6455 24.584 76.8496 24.184 76.0538C24.184 75.658 23.384 75.258 22.584 75.658L16.584 78.8371L16.984 79.633C19.0757 78.5288 21.4257 78.0955 23.384 77.6455Z" fill="#00754A"/>
<path d="M21.7844 83.2098C22.5844 83.2098 22.9844 82.4139 22.5844 81.6181C22.1844 81.2223 21.7844 80.8223 20.9844 80.8223L14.9844 84.4014L15.3844 85.1973C17.476 84.0931 19.826 83.6598 21.7844 83.2098Z" fill="#00754A"/>
<path d="M47.7879 32.732C48.1879 32.732 48.9879 32.3361 48.9879 31.5403C48.9879 30.7445 48.1879 30.3486 47.3879 30.3486L40.5879 31.5403V32.3361C43.4421 31.5528 45.6171 32.3028 47.7879 32.732Z" fill="#00754A"/>
<path d="M50.9891 28.7576C51.3891 28.7576 52.1891 28.3576 52.1891 27.566C51.7891 26.7701 51.3891 26.3701 50.5891 26.3701L43.7891 27.566V28.3576C46.5057 27.9035 48.7016 27.966 50.9891 28.7576Z" fill="#00754A"/>
<path d="M54.5891 25.1798C55.3891 25.1798 55.7891 24.384 55.7891 23.5882C55.7891 23.1923 55.3891 22.3965 54.5891 22.3965L47.7891 23.5882V24.384C50.3349 23.8173 52.4432 24.6423 54.5891 25.1798Z" fill="#00754A"/>
<path d="M57.3879 20.8077C58.1879 20.4119 58.5879 20.0119 58.5879 19.2161C58.5879 18.4202 57.7879 18.0244 56.9879 18.0244L50.5879 20.0119V21.2077C53.1171 19.9369 55.2421 20.5536 57.3879 20.8077Z" fill="#00754A"/>
<path d="M48.5882 15.244C48.5882 14.4482 47.7882 14.0523 46.9882 14.4482C46.1882 14.4482 45.7882 15.244 46.1882 16.0398L48.5882 22.3982L49.3882 22.0023C48.409 19.6482 48.6048 17.4148 48.5882 15.244Z" fill="#00754A"/>
<path d="M44.9859 18.0263C44.9859 17.6263 44.1859 17.2305 43.3859 17.2305C42.9859 17.2305 42.5859 18.0263 42.5859 18.8221L44.9859 25.1805H45.7859C45.0151 22.6721 44.6984 20.3055 44.9859 18.0263Z" fill="#00754A"/>
<path d="M41.387 21.6024C41.387 20.8066 40.587 20.4107 39.787 20.8066C38.987 20.8066 38.587 21.6024 38.987 22.3982L42.187 29.9482H42.987C41.6912 27.1566 41.6037 24.2232 41.387 21.6024Z" fill="#00754A"/>
<path d="M38.1867 25.1799C37.7867 24.3841 36.9867 23.9883 36.5867 23.9883C35.7867 24.3841 35.3867 24.7841 35.3867 25.5799L38.5867 33.5258L39.3867 33.1299C37.7576 30.3633 38.1201 27.5841 38.1867 25.1799Z" fill="#00754A"/>
<path d="M34.9859 28.3593C34.9859 27.5635 34.1859 27.5635 33.3859 27.5635C32.9859 27.9635 32.5859 28.3593 32.5859 29.1551L36.1859 36.7051H36.9859C35.7234 33.8343 34.8068 31.0968 34.9859 28.3593Z" fill="#00754A"/>
<path d="M31.385 32.7314C30.985 32.3355 30.585 31.9355 29.785 31.9355C28.985 32.3355 28.585 33.1314 28.985 33.9272L32.585 41.4772L33.385 41.0772C32.1392 38.1772 31.1934 35.648 31.385 32.7314Z" fill="#00754A"/>
<path d="M28.1852 37.5019C28.1852 36.7061 27.3852 36.7061 26.5852 36.7061C26.1852 37.1061 25.7852 37.9019 25.7852 38.2977L29.3852 45.8477L30.1852 45.4519C28.881 42.7019 28.0102 40.1394 28.1852 37.5019Z" fill="#00754A"/>
<path d="M25.3844 41.4769C25.3844 41.0769 24.5844 40.6811 23.7844 41.0769C23.3844 41.0769 22.9844 41.8728 23.3844 42.6686L27.3844 49.8228L28.1844 49.4269C26.8469 46.7561 25.7303 44.1728 25.3844 41.4769Z" fill="#00754A"/>
<path d="M23.2464 45.8329C22.8464 45.0371 22.0464 45.0371 21.6464 45.0371C20.8464 45.4371 20.4464 46.2329 20.8464 47.0246L24.8464 54.1788L26.0464 53.7829C24.3797 51.0246 23.163 48.5871 23.2464 45.8329Z" fill="#00754A"/>
<path d="M20.1827 50.2211C19.7827 49.8211 18.9827 49.4252 18.5827 49.8211C17.7827 50.2211 17.7827 51.0169 18.1827 51.8127L22.9827 58.5669L23.7827 58.1711C22.0827 55.5127 20.6493 53.0252 20.1827 50.2211Z" fill="#00754A"/>
<path d="M18.1839 54.9903C17.7839 54.5945 16.9839 54.1945 16.5839 54.5945C15.7839 54.9903 15.3839 55.7862 15.7839 56.182L20.5839 63.3362L21.3839 62.9403C19.863 60.3403 18.5922 57.7653 18.1839 54.9903Z" fill="#00754A"/>
<path d="M16.1827 58.5675C15.7827 58.1716 14.9827 57.7716 14.5827 58.1716C13.7827 58.5675 13.7827 59.3633 14.1827 60.1591L19.3827 66.5175L20.1827 66.1175C18.2702 63.6258 16.6952 61.2842 16.1827 58.5675Z" fill="#00754A"/>
<path d="M14.1827 62.5427C13.7827 61.7468 12.9827 61.7468 12.5827 62.1468C11.7827 62.5427 11.7827 63.3385 12.1827 63.7343L17.7827 70.0927L18.5827 69.6968C16.4035 67.5718 15.2243 64.7593 14.1827 62.5427Z" fill="#00754A"/>
<path d="M12.9834 66.5168C12.5834 66.1168 11.7834 66.1168 11.3834 66.5168C10.5834 66.9168 10.5834 67.7085 10.9834 68.1085L16.1834 74.4668L16.9834 74.0668C15.0626 71.5501 13.5043 69.2876 12.9834 66.5168Z" fill="#00754A"/>
<path d="M10.9816 72.0807C10.5816 71.2849 9.78164 71.2849 8.98164 71.6849C8.58164 72.0807 8.58164 72.8766 8.98164 73.6724L14.5816 79.6307L15.3816 78.8391C13.1608 76.8599 12.015 74.1891 10.9816 72.0807Z" fill="#00754A"/>
<path d="M9.38248 76.8506C8.98248 76.4548 8.18248 76.4548 7.78248 76.8506C7.38248 77.2464 6.98248 78.0423 7.38248 78.4423L13.3825 84.8006L14.1825 84.0048C12.1616 81.7464 10.4491 79.5506 9.38248 76.8506Z" fill="#00754A"/>
<path d="M8.18086 83.2098C7.38086 82.814 6.58086 82.414 6.18086 83.2098C5.78086 83.6098 5.78086 84.4015 6.18086 84.8015L12.1809 90.7598L12.9809 89.9681C10.6559 87.7848 8.80586 85.8681 8.18086 83.2098Z" fill="#00754A"/>
<path d="M7.38203 89.9676C6.98203 89.5718 6.18203 89.1718 5.38203 89.9676C4.98203 90.3635 4.98203 91.1593 5.38203 91.5593L11.382 97.5176L12.182 96.726C9.7987 94.7968 8.5112 92.076 7.38203 89.9676Z" fill="#00754A"/>
<path d="M6.18086 97.5186C5.78086 97.1227 4.98086 97.1227 4.18086 97.5186C3.78086 97.9186 3.78086 98.7102 4.18086 99.1102L10.1809 105.073L10.9809 104.673C8.68503 102.331 6.81836 100.281 6.18086 97.5186Z" fill="#00754A"/>
<path d="M5.38219 105.071C4.98219 104.671 4.18219 104.276 3.78219 105.071C3.38219 105.467 2.98219 106.263 3.78219 106.663L9.78219 112.226L10.5822 111.83C8.37803 109.734 6.48636 107.68 5.38219 105.071Z" fill="#00754A"/>
<path d="M5.38203 112.624C4.58203 111.828 3.78203 111.828 3.38203 112.224C2.98203 113.019 2.98203 113.815 3.38203 114.215L9.78203 119.382L10.582 118.982C8.0612 117.282 6.64453 114.699 5.38203 112.624Z" fill="#00754A"/>
<path d="M4.98149 119.38C4.18149 118.98 3.38149 118.98 2.98149 119.38C2.58149 120.176 2.58149 120.972 3.38149 121.368L10.5815 125.738L10.9815 124.947C8.40233 123.551 6.66066 121.313 4.98149 119.38Z" fill="#00754A"/>
<path d="M5.38053 126.534C4.58053 126.138 3.78053 126.534 3.38053 126.934C2.98053 127.726 3.38053 128.521 3.78053 128.921L11.3805 132.496L11.7805 131.701C8.9097 130.246 6.70136 129.063 5.38053 126.534Z" fill="#00754A"/>
<path d="M6.18131 133.689C5.38131 133.289 4.58131 133.689 4.18131 134.085C3.78131 134.881 4.18131 135.677 4.58131 136.077L12.1855 139.652L12.5813 138.856C9.71464 137.402 7.50214 136.218 6.18131 133.689Z" fill="#00754A"/>
<path d="M6.98242 140.842C6.18242 140.446 5.38242 140.842 4.98242 141.238C4.98242 142.033 4.98242 142.829 5.78242 142.829L13.7824 145.613L14.1824 144.821C11.4158 143.796 8.78659 142.671 6.98242 140.842Z" fill="#00754A"/>
<path d="M7.78131 146.407C6.98131 146.007 6.18131 146.407 6.18131 147.203C5.78131 147.599 6.18131 148.399 6.58131 148.795L14.5813 151.574L14.9813 150.778C12.2438 149.57 9.74381 148.449 7.78131 146.407Z" fill="#00754A"/>
<path d="M8.98248 151.575C8.18248 151.175 7.78248 151.575 7.38248 152.371C6.98248 152.767 7.38248 153.562 7.78248 153.962L15.7825 156.742L16.1825 155.946C13.445 154.737 10.945 153.612 8.98248 151.575Z" fill="#00754A"/>
<path d="M10.1816 155.947C9.38164 155.547 8.58164 155.947 8.18164 156.347C8.18164 157.143 8.18164 157.934 8.58164 158.334L17.7816 163.101L18.5858 162.305C15.4608 160.309 12.0775 158.605 10.1816 155.947Z" fill="#00754A"/>
<path d="M20.5836 89.1724C21.3836 88.7724 21.3836 87.9808 21.3836 87.1849C20.9836 86.7849 20.1836 86.3891 19.3836 86.7849L12.1836 91.1599L12.5836 91.9558C15.1461 90.0724 18.1003 89.6724 20.5836 89.1724Z" fill="#00754A"/>
<path d="M19.3848 95.1342C19.7848 94.7384 20.1848 93.9426 19.7848 93.5426C19.3848 92.7509 18.5848 92.7509 18.1848 93.1467L11.3848 98.3176L11.7848 99.1092C14.2931 97.2092 16.6473 95.6426 19.3848 95.1342Z" fill="#00754A"/>
<path d="M18.9824 101.891C19.7824 101.495 19.7824 100.699 19.3824 100.299C18.9824 99.5037 18.1824 99.5037 17.7824 99.9037L10.9824 105.074L11.3824 105.866C13.8908 103.966 16.2449 102.399 18.9824 101.891Z" fill="#00754A"/>
<path d="M18.182 108.648C18.982 108.252 18.982 107.456 18.582 106.66C18.182 106.26 17.382 106.26 16.582 106.66L10.582 112.223L10.982 113.019C13.1195 110.852 15.9529 109.685 18.182 108.648Z" fill="#00754A"/>
<path d="M17.7836 115.405C18.5836 115.009 18.5836 114.213 18.1836 113.813C17.7836 113.017 16.9836 113.017 16.5836 113.417L10.1836 119.38L10.9836 120.176C13.0253 118.205 15.5003 116.801 17.7836 115.405Z" fill="#00754A"/>
<path d="M18.1824 121.367C18.9824 120.967 18.9824 120.175 18.1824 119.379C17.7824 118.979 16.9824 118.979 16.5824 119.379L10.9824 125.737L11.7824 126.533C13.5158 123.971 16.1741 122.571 18.1824 121.367Z" fill="#00754A"/>
<path d="M18.5828 126.931C18.9828 126.531 18.9828 125.739 18.5828 124.944C18.1828 124.544 17.3828 124.544 16.9828 124.944L11.3828 131.302L11.7828 132.098C13.9911 129.606 15.8078 127.627 18.5828 126.931Z" fill="#00754A"/>
<path d="M18.9836 133.291C19.3836 132.891 19.3836 132.099 18.9836 131.699C18.5836 130.903 17.7836 131.303 16.9836 131.699L12.1836 138.457L12.9836 138.857C14.6086 136.478 16.9253 134.87 18.9836 133.291Z" fill="#00754A"/>
<path d="M20.1832 138.857C20.5832 138.061 20.5832 137.265 20.1832 136.865C19.3832 136.469 18.5832 136.469 18.1832 137.265L13.7832 144.419L14.5832 144.819C15.9624 142.269 18.3332 140.44 20.1832 138.857Z" fill="#00754A"/>
<path d="M23.3844 151.575C23.7844 150.779 23.7844 149.983 22.9844 149.587C22.5844 149.187 21.7844 149.187 21.3844 149.983L16.9844 157.141L17.7844 157.537C19.4135 154.883 20.8469 152.804 23.3844 151.575Z" fill="#00754A"/>
<path d="M26.1852 157.536C26.5852 156.74 26.1852 155.944 25.7852 155.549C24.9852 155.149 24.1852 155.549 23.7852 155.944L19.7852 164.29L20.5852 164.69C22.1935 161.628 23.456 159.024 26.1852 157.536Z" fill="#00754A"/>
<path d="M21.7828 144.42C22.1828 143.624 21.7828 142.828 21.3828 142.432C20.5828 142.032 19.7828 142.432 19.7828 142.828L15.3828 151.178L16.1828 151.574C17.4661 148.603 19.8328 146.387 21.7828 144.42Z" fill="#00754A"/>
<path d="M53.7878 15.6406C29.7836 39.0906 14.5836 67.3115 10.1795 97.9156C5.77948 128.92 12.5795 160.32 29.7836 188.536C30.1836 189.332 30.9836 189.332 31.7836 188.936C32.5836 188.536 32.5836 187.745 32.1836 187.345C15.3836 159.524 8.58364 128.92 12.9836 98.3156C17.3836 68.5031 31.7836 40.2823 55.3878 17.6281C56.1878 17.2323 56.1878 16.4365 55.3878 15.6406C54.9878 15.2448 54.1878 15.2448 53.7878 15.6406Z" fill="#00754A"/>
<path d="M241.815 36.7072C241.015 36.7072 240.615 35.9114 240.615 35.5156C240.615 34.7197 241.015 33.9239 241.815 34.3197L248.615 35.1156V36.3072C245.999 35.4989 243.965 36.2656 241.815 36.7072Z" fill="#00754A"/>
<path d="M244.616 40.6812C243.816 40.6812 243.416 39.8854 243.416 39.4895C243.416 38.6937 243.816 38.2979 244.616 38.2979L251.416 39.4895V40.6812C248.812 39.6687 246.737 40.3354 244.616 40.6812Z" fill="#00754A"/>
<path d="M247.017 44.6561C246.217 44.6561 245.812 43.8602 245.812 43.4644C245.812 42.6686 246.617 42.2686 247.417 42.2686L254.217 43.8602L253.817 44.6561C251.121 43.6269 249.125 44.3144 247.017 44.6561Z" fill="#00754A"/>
<path d="M249.815 49.0281C249.015 49.0281 248.615 48.6281 248.615 47.8365C249.015 47.0406 249.415 46.6406 250.215 46.6406L257.015 48.6281L256.615 49.4281C254.224 48.6823 251.807 48.9531 249.815 49.0281Z" fill="#00754A"/>
<path d="M252.215 53.4002C251.815 53.4002 251.015 52.6044 251.42 51.8085C251.42 51.4127 252.215 51.0127 253.015 51.0127L259.415 53.8002L259.02 54.5919C256.599 53.5794 254.461 53.1585 252.215 53.4002Z" fill="#00754A"/>
<path d="M255.419 58.5669C255.019 58.5669 254.219 57.7711 254.619 57.3753C254.619 56.5794 255.419 56.1836 256.219 56.1836L262.619 58.9669L262.219 59.7586C259.802 58.7503 257.665 58.3253 255.419 58.5669Z" fill="#00754A"/>
<path d="M257.416 63.3377C256.616 63.3377 256.216 62.5419 256.616 61.746C256.616 61.3502 257.416 60.9502 258.216 60.9502L264.616 63.3377L264.216 64.5294C261.824 63.5127 259.641 63.096 257.416 63.3377Z" fill="#00754A"/>
<path d="M259.019 68.1072C258.219 67.7072 257.819 67.3113 258.219 66.5155C258.219 65.7197 259.019 65.3238 259.819 65.7197L266.219 68.1072L265.819 68.903C263.432 68.1072 261.353 67.8072 259.019 68.1072Z" fill="#00754A"/>
<path d="M260.617 72.4786C260.217 72.0786 259.821 71.287 260.217 70.4911C260.217 70.0911 261.017 69.6953 261.821 69.6953L267.817 72.8745L267.417 73.6703C265.008 72.662 263.004 72.2203 260.617 72.4786Z" fill="#00754A"/>
<path d="M262.218 77.6455C261.818 77.6455 261.418 76.8496 261.818 76.0538C261.818 75.658 262.618 75.258 263.418 75.658L269.418 78.8371L269.018 79.633C266.714 78.583 264.506 77.8663 262.218 77.6455Z" fill="#00754A"/>
<path d="M264.507 83.6409C263.707 83.6409 263.016 82.4159 263.42 81.6201C263.816 81.2242 264.216 80.8242 265.016 80.8242L271.02 84.4034L270.62 85.1992C268.528 84.0909 266.461 84.0909 264.507 83.6409Z" fill="#00754A"/>
<path d="M238.214 32.732C237.814 32.732 237.014 32.3361 237.014 31.5403C237.014 30.7445 237.814 30.3486 238.614 30.3486L245.414 31.5403V32.3361C242.56 31.5528 240.389 32.3028 238.214 32.732Z" fill="#00754A"/>
<path d="M235.014 28.7576C234.614 28.7576 233.818 28.3576 233.818 27.566C233.818 26.7701 234.614 26.3701 235.414 26.3701L242.214 27.566V28.3576C239.36 27.5785 237.185 28.3285 235.014 28.7576Z" fill="#00754A"/>
<path d="M231.414 25.1798C230.614 25.1798 229.814 24.384 230.218 23.5882C230.218 23.1923 230.614 22.3965 231.414 22.3965L238.214 23.5882V24.384C235.672 23.8173 233.559 24.6423 231.414 25.1798Z" fill="#00754A"/>
<path d="M228.612 20.8077C227.812 20.4119 227.412 20.0119 227.412 19.2161C227.412 18.4202 228.212 18.0244 229.012 18.0244L235.412 20.0119V21.2077C232.883 19.9369 230.758 20.5536 228.612 20.8077Z" fill="#00754A"/>
<path d="M235.185 16.0411C234.993 15.2703 235.676 14.6953 236.551 14.8911C237.326 14.7036 237.906 15.3786 237.706 16.2453L236.897 22.9911L236.026 22.7953C236.414 20.2786 235.689 18.1536 235.185 16.0411Z" fill="#00754A"/>
<path d="M241.015 18.0263C241.015 17.6263 241.815 17.2305 242.615 17.2305C243.015 17.2305 243.415 18.0263 243.415 18.8221L241.015 25.1805H240.215C240.986 22.6721 241.302 20.3055 241.015 18.0263Z" fill="#00754A"/>
<path d="M244.616 21.6024C244.616 20.8066 245.416 20.4107 246.216 20.8066C247.016 20.8066 247.016 21.6024 247.016 22.3982L243.816 29.9482H243.012C244.328 27.1524 244.416 24.0232 244.616 21.6024Z" fill="#00754A"/>
<path d="M247.817 25.1799C248.217 24.3841 248.613 23.9883 249.413 23.9883C250.217 24.3841 250.617 24.7841 250.617 25.5799L247.417 33.5258L246.613 33.1299C248.238 30.2924 247.88 27.5674 247.817 25.1799Z" fill="#00754A"/>
<path d="M251.018 28.3593C251.018 27.5635 251.818 27.5635 252.618 27.5635C253.018 27.9635 253.418 28.3593 253.418 29.1551L249.818 36.7051H249.018C250.28 33.8343 251.197 31.0968 251.018 28.3593Z" fill="#00754A"/>
<path d="M254.617 32.7314C255.017 32.3355 255.417 31.9355 256.217 31.9355C257.017 32.3355 257.417 33.1314 257.017 33.9272C256.617 34.323 256.217 34.7189 255.817 34.7189L253.417 41.4772L252.617 41.0772L255.017 34.323C254.617 33.9272 254.217 33.5272 254.617 32.7314Z" fill="#00754A"/>
<path d="M257.818 37.5019C257.818 36.7061 258.618 36.7061 259.418 36.7061C259.818 37.1061 260.218 37.9019 260.218 38.2977L256.614 45.8477L255.418 45.4519C256.905 42.6977 257.947 40.1977 257.818 37.5019Z" fill="#00754A"/>
<path d="M260.616 41.4769C260.616 41.0769 261.416 40.6811 262.221 41.0769C262.621 41.0769 263.016 41.8728 262.621 42.6686L258.616 49.8228L257.816 49.4269C259.154 46.7561 260.271 44.1728 260.616 41.4769Z" fill="#00754A"/>
<path d="M263.419 46.6435C263.819 45.8477 264.619 45.8477 265.019 45.8477C265.819 46.2435 266.219 47.0435 265.819 47.8352L261.819 54.9893L260.615 54.5935C262.282 51.8352 263.503 49.3977 263.419 46.6435Z" fill="#00754A"/>
<path d="M265.819 50.2211C266.219 49.8211 267.019 49.4252 267.419 49.8211C268.219 50.2211 268.219 51.0169 267.819 51.8127L263.019 58.5669L262.219 58.1711C263.919 55.5127 265.352 53.0252 265.819 50.2211Z" fill="#00754A"/>
<path d="M267.817 54.9903C268.217 54.5945 269.021 54.1945 269.421 54.5945C270.217 54.9903 270.217 55.7862 270.217 56.182L265.417 63.3362L264.617 62.9403C266.142 60.3403 267.409 57.7653 267.817 54.9903Z" fill="#00754A"/>
<path d="M269.821 58.5675C270.221 58.1716 271.016 57.7716 271.416 58.1716C272.221 58.5675 272.221 59.3633 271.821 60.1591L266.616 66.5175L265.816 66.1175C267.733 63.6258 269.304 61.2842 269.821 58.5675Z" fill="#00754A"/>
<path d="M271.82 62.5427C272.22 61.7468 273.02 61.7468 273.42 62.1468C274.22 62.5427 274.22 63.3385 273.82 63.7343L268.22 70.0927L267.42 69.6968C269.599 67.5718 270.778 64.7593 271.82 62.5427Z" fill="#00754A"/>
<path d="M273.02 66.5168C273.42 66.1168 274.22 66.1168 274.62 66.5168C275.42 66.9168 275.42 67.7085 275.02 68.1085L269.82 74.4668L269.02 74.0668C270.94 71.5501 272.499 69.2876 273.02 66.5168Z" fill="#00754A"/>
<path d="M275.019 72.0807C275.419 71.2849 276.219 71.2849 277.019 71.6849C277.419 72.0807 277.419 72.8766 277.019 73.6724L271.419 79.6307L270.619 78.8391C272.844 76.8599 273.986 74.1891 275.019 72.0807Z" fill="#00754A"/>
<path d="M276.62 76.8506C277.02 76.4548 277.82 76.4548 278.216 76.8506C278.62 77.2464 279.02 78.0423 278.62 78.4423L272.62 84.8006L271.82 84.0048C273.837 81.7464 275.554 79.5506 276.62 76.8506Z" fill="#00754A"/>
<path d="M277.82 83.2098C278.22 82.814 279.02 82.414 279.82 83.2098C280.22 83.6098 280.22 84.4015 279.82 84.8015L273.82 90.7598L273.02 89.9681C275.345 87.7848 277.199 85.8681 277.82 83.2098Z" fill="#00754A"/>
<path d="M278.62 89.9676C279.02 89.5718 279.82 89.1718 280.62 89.9676C281.02 90.3635 281.02 91.1593 280.62 91.5593L274.62 97.5176L273.82 96.726C276.204 94.7968 277.491 92.076 278.62 89.9676Z" fill="#00754A"/>
<path d="M279.82 97.5186C280.22 97.1227 281.02 97.1227 281.82 97.5186C282.22 97.9186 282.22 98.7102 281.82 99.1102L275.82 105.073L275.02 104.673C277.315 102.331 279.182 100.281 279.82 97.5186Z" fill="#00754A"/>
<path d="M280.622 105.071C281.022 104.671 281.818 104.276 282.222 105.071C282.622 105.467 283.022 106.263 282.222 106.663L276.222 112.226L275.418 111.83C277.626 109.734 279.522 107.68 280.622 105.071Z" fill="#00754A"/>
<path d="M280.622 112.624C281.422 111.828 282.222 111.828 282.622 112.224C283.022 113.019 283.022 113.815 282.622 114.215L276.222 119.382L275.418 118.982C277.98 117.307 279.485 114.494 280.622 112.624Z" fill="#00754A"/>
<path d="M281.021 119.38C281.817 118.98 282.621 118.98 283.021 119.38C283.421 120.176 283.021 120.972 282.621 121.368L275.417 125.738L274.621 124.947C277.342 123.593 279.242 121.313 281.021 119.38Z" fill="#00754A"/>
<path d="M280.621 126.534C281.421 126.138 282.221 126.534 282.621 126.934C283.021 127.726 282.621 128.521 282.221 128.921L274.617 132.496L274.221 131.701C277.087 130.246 279.3 129.063 280.621 126.534Z" fill="#00754A"/>
<path d="M279.82 133.689C280.62 133.289 281.42 133.689 281.82 134.085C281.82 134.881 281.82 135.677 281.42 136.077L273.82 139.652L273.02 138.856C276.082 137.381 278.445 136.223 279.82 133.689Z" fill="#00754A"/>
<path d="M279.018 140.842C279.818 140.446 280.623 140.842 281.018 141.238C281.018 142.033 281.018 142.829 280.223 142.829L272.218 145.613L271.818 144.821C274.585 143.796 277.214 142.671 279.018 140.842Z" fill="#00754A"/>
<path d="M278.218 146.407C279.018 146.007 279.822 146.407 279.822 147.203C280.222 147.599 279.822 148.399 279.422 148.795L271.418 151.574L271.018 150.778C273.755 149.57 276.259 148.449 278.218 146.407Z" fill="#00754A"/>
<path d="M277.02 151.575C277.42 151.175 278.216 151.575 278.62 152.371C279.02 152.767 278.62 153.562 278.216 153.962L270.22 156.742L269.82 155.946C272.558 154.737 275.058 153.612 277.02 151.575Z" fill="#00754A"/>
<path d="M275.82 155.947C276.62 155.547 277.42 155.947 277.42 156.347C277.82 157.143 277.82 157.934 277.42 158.334L268.22 163.101L267.416 162.305C270.537 160.309 273.924 158.605 275.82 155.947Z" fill="#00754A"/>
<path d="M265.419 89.1724C264.619 88.7724 264.619 87.9808 264.619 87.1849C265.019 86.7849 265.819 86.3891 266.619 86.7849L273.819 91.1599L273.419 91.9558C270.894 90.1224 267.927 89.6766 265.419 89.1724Z" fill="#00754A"/>
<path d="M266.618 95.1342C266.218 94.7384 265.818 93.9426 266.218 93.5426C266.618 92.7509 267.418 92.7509 267.818 93.1467L274.618 98.3176L274.218 99.1092C271.71 97.2092 269.356 95.6426 266.618 95.1342Z" fill="#00754A"/>
<path d="M267.019 101.891C266.223 101.495 266.223 100.699 266.619 100.299C267.019 99.5037 267.819 99.5037 268.219 99.9037L275.019 105.074L274.619 105.866C272.294 103.908 269.361 102.841 267.019 101.891Z" fill="#00754A"/>
<path d="M267.817 108.648C267.017 108.252 267.017 107.456 267.417 106.66C267.817 106.26 268.617 106.26 269.421 106.66C269.821 107.056 269.821 107.456 269.821 107.852L275.417 112.223L275.017 113.019L269.021 108.648C268.617 109.044 268.217 109.044 267.817 108.648Z" fill="#00754A"/>
<path d="M267.818 115.405C267.418 115.009 267.418 114.213 267.818 113.813C268.218 113.017 269.022 113.017 269.422 113.417L275.822 119.38L275.018 120.176C272.751 118.167 270.534 116.467 267.818 115.405Z" fill="#00754A"/>
<path d="M267.817 121.367C267.017 120.967 267.017 120.175 267.817 119.379C268.217 118.979 269.021 118.979 269.421 119.379L275.017 125.737L274.217 126.533C272.488 123.971 269.825 122.571 267.817 121.367Z" fill="#00754A"/>
<path d="M267.417 126.931C267.017 126.531 267.017 125.739 267.417 124.944C267.817 124.544 268.617 124.544 269.021 124.944L274.617 131.302L274.217 132.098C272.034 129.635 270.163 127.619 267.417 126.931Z" fill="#00754A"/>
<path d="M267.019 133.291C266.619 132.891 266.619 132.099 267.019 131.699C267.419 130.903 268.219 131.303 268.619 131.699L273.819 138.457L273.023 138.857C271.394 136.478 269.077 134.87 267.019 133.291Z" fill="#00754A"/>
<path d="M265.82 138.857C265.42 138.061 265.42 137.265 265.82 136.865C266.62 136.469 267.42 136.469 267.82 137.265L272.22 144.419L271.42 144.819C270.04 142.269 267.665 140.44 265.82 138.857Z" fill="#00754A"/>
<path d="M262.62 151.575C262.22 150.779 262.22 149.983 263.02 149.587C263.42 149.187 264.216 149.187 264.62 149.983L269.02 157.141L268.22 157.537C266.816 154.971 264.562 153.241 262.62 151.575Z" fill="#00754A"/>
<path d="M259.818 157.536C259.418 156.74 259.818 155.944 260.218 155.549C261.018 155.149 261.818 155.549 262.218 155.944L266.218 164.29L265.418 164.69C263.81 161.628 262.547 159.024 259.818 157.536Z" fill="#00754A"/>
<path d="M264.216 144.42C263.816 143.624 263.816 142.828 264.616 142.432C265.016 142.032 265.82 142.432 266.22 142.828L270.616 151.178L269.82 151.574C268.537 148.603 266.166 146.387 264.216 144.42Z" fill="#00754A"/>
<path d="M232.214 15.6406C256.218 39.0906 271.418 67.3115 275.822 97.9156C280.222 128.92 273.422 160.32 256.218 188.536C255.818 189.332 254.618 189.332 254.218 188.936C253.418 188.536 253.418 187.745 253.818 187.345C270.618 159.524 277.422 128.92 273.022 98.3156C268.618 68.5031 254.218 40.2823 230.614 17.6281C229.814 17.2323 229.814 16.4365 230.614 15.6406C231.014 15.2448 231.814 15.2448 232.214 15.6406Z" fill="#00754A"/>
<path d="M93.1716 219.232H100.667C59.4716 202.574 30.3341 162.395 30.3175 115.574C30.305 85.6783 42.0175 57.5658 63.2925 36.4199C84.5675 15.2699 112.859 3.61576 142.959 3.60326H143.001C205.113 3.60326 255.663 53.7908 255.684 115.491V115.574C255.672 145.474 243.942 173.578 222.651 194.712C211.855 205.424 199.259 213.682 185.542 219.232H192.984C204.63 213.682 215.376 206.166 224.784 196.828C246.642 175.132 258.688 146.274 258.701 115.578V115.491C258.676 52.1366 206.78 0.607422 143.001 0.607422H142.959C79.1591 0.632422 27.28 52.2074 27.3008 115.578C27.3175 161.203 54.2633 200.707 93.1716 219.232Z" fill="#C2A365"/>
<path d="M259.417 174.231L254.004 157.906C244.296 184.048 224.833 205.894 200.342 219.311V246.481H197.408V251.34C240.212 234.644 273.021 198.477 285.021 153.561L259.417 174.231Z" fill="#C2A365"/>
<path d="M85.6596 246.481V219.231H85.9638C61.3221 206.152 41.4888 185.094 31.7846 158.969L26.5846 174.231L0.980469 153.564C12.9846 198.477 45.7888 234.644 88.593 251.339V246.481H85.6596Z" fill="#C2A365"/>
<path d="M86.1624 245.981H199.842V219.731H86.1624V245.981ZM200.846 246.981H85.1582V218.735H200.846V246.981Z" fill="#C2A365"/>
<path d="M143 224.317C138.259 224.317 134.404 228.146 134.404 232.858C134.404 237.567 138.259 241.396 143 241.396C147.738 241.396 151.596 237.567 151.596 232.858C151.596 228.146 147.738 224.317 143 224.317ZM143 242.792C137.484 242.792 132.996 238.338 132.996 232.858C132.996 227.379 137.484 222.921 143 222.921C148.517 222.921 153.004 227.379 153.004 232.858C153.004 238.338 148.517 242.792 143 242.792Z" fill="#951F39"/>
<path d="M172.135 224.317C167.393 224.317 163.539 228.146 163.539 232.858C163.539 237.567 167.393 241.396 172.135 241.396C176.877 241.396 180.735 237.567 180.735 232.858C180.735 228.146 176.877 224.317 172.135 224.317ZM172.135 242.792C166.618 242.792 162.131 238.338 162.131 232.858C162.131 227.379 166.618 222.921 172.135 222.921C177.652 222.921 182.139 227.379 182.139 232.858C182.139 238.338 177.652 242.792 172.135 242.792Z" fill="#951F39"/>
<path d="M157.569 224.317C152.831 224.317 148.973 228.146 148.973 232.858C148.973 237.567 152.831 241.396 157.569 241.396C162.31 241.396 166.169 237.567 166.169 232.858C166.169 228.146 162.31 224.317 157.569 224.317ZM157.569 242.792C152.052 242.792 147.564 238.338 147.564 232.858C147.564 227.379 152.052 222.921 157.569 222.921C163.085 222.921 167.573 227.379 167.573 232.858C167.573 238.338 163.085 242.792 157.569 242.792Z" fill="#951F39"/>
<path d="M128.434 224.317C123.692 224.317 119.838 228.146 119.838 232.858C119.838 237.567 123.692 241.396 128.434 241.396C133.176 241.396 137.03 237.567 137.03 232.858C137.03 228.146 133.176 224.317 128.434 224.317ZM128.434 242.792C122.917 242.792 118.43 238.338 118.43 232.858C118.43 227.379 122.917 222.921 128.434 222.921C133.951 222.921 138.438 227.379 138.438 232.858C138.438 238.338 133.951 242.792 128.434 242.792Z" fill="#951F39"/>
<path d="M113.865 224.317C109.124 224.317 105.27 228.146 105.27 232.858C105.27 237.567 109.124 241.396 113.865 241.396C118.607 241.396 122.461 237.567 122.461 232.858C122.461 228.146 118.607 224.317 113.865 224.317ZM113.865 242.792C108.349 242.792 103.861 238.338 103.861 232.858C103.861 227.379 108.349 222.921 113.865 222.921C119.382 222.921 123.87 227.379 123.87 232.858C123.87 238.338 119.382 242.792 113.865 242.792Z" fill="#951F39"/>
<path d="M99.2991 224.317C94.5574 224.317 90.7033 228.146 90.7033 232.858C90.7033 237.567 94.5574 241.396 99.2991 241.396C104.041 241.396 107.895 237.567 107.895 232.858C107.895 228.146 104.041 224.317 99.2991 224.317ZM99.2991 242.792C93.7824 242.792 89.2949 238.338 89.2949 232.858C89.2949 227.379 93.7824 222.921 99.2991 222.921C104.816 222.921 109.303 227.379 109.303 232.858C109.303 238.338 104.816 242.792 99.2991 242.792Z" fill="#951F39"/>
<path d="M186.703 224.317C181.961 224.317 178.107 228.146 178.107 232.858C178.107 237.567 181.961 241.396 186.703 241.396C191.445 241.396 195.303 237.567 195.303 232.858C195.303 228.146 191.445 224.317 186.703 224.317ZM186.703 242.792C181.191 242.792 176.703 238.338 176.703 232.858C176.703 227.379 181.191 222.921 186.703 222.921C192.22 222.921 196.707 227.379 196.707 232.858C196.707 238.338 192.22 242.792 186.703 242.792Z" fill="#951F39"/>
<path d="M199.327 82.9674C199.231 81.6799 198.902 81.2465 197.606 81.9965C196.86 82.4257 195.939 82.5798 195.077 82.7923C193.027 83.3007 190.789 83.434 188.935 84.3424C186.631 85.4757 185.922 83.4715 184.522 82.7923C183.293 82.1882 184.814 81.9465 184.681 81.4632C184.589 81.1382 184.552 80.7757 184.281 80.5882C182.531 79.3549 181.343 77.4048 179.247 76.6215C177.564 75.984 176.502 74.8632 176.106 73.1048C175.831 71.884 175.314 70.7423 174.127 70.1923C172.889 69.6132 172.514 68.6299 172.406 67.4299C172.272 66.034 172.018 64.5382 171.043 63.609C169.822 62.4382 168.868 61.2882 168.093 59.7215C167.218 57.9382 164.702 54.4632 164.568 53.6715C164.435 52.8757 165.368 53.1424 165.652 52.6507C166.543 51.1007 165.843 49.6007 165.106 48.1007C164.527 46.909 163.735 47.3632 162.902 47.4132C162.472 47.4382 161.956 47.4382 161.618 47.2257C160.431 46.4798 159.039 46.6257 158.102 47.1799C156.118 48.3424 154.277 47.7548 152.343 47.3923C151.585 47.2507 150.731 47.3507 150.064 47.0423C148.477 46.3048 146.631 46.484 145.143 45.359C144.11 44.5715 142.814 44.7673 141.685 45.4257C140.772 45.9507 140.239 46.584 140.527 47.8423C140.814 49.0715 139.314 50.0423 138.222 49.3715C137.097 48.6798 135.864 48.4382 134.647 48.0882C133.943 47.884 133.139 47.7548 132.847 47.0423C132.389 45.9465 131.443 45.7215 130.481 45.4673C128.531 44.9465 126.464 44.9923 124.685 43.7007C123.697 42.984 123.764 42.6715 124.585 42.0507C125.252 41.5507 126.172 40.9174 125.56 40.0757C124.897 39.1757 125.122 38.5507 125.552 37.7924C125.552 37.7924 125.468 37.7174 125.422 37.7174C124.452 37.6715 123.735 36.3465 122.568 37.1798C122.052 37.5548 121.414 37.4882 120.797 37.484C118.506 37.4715 116.206 37.3507 113.927 37.5048C110.947 37.7007 108.118 38.4423 105.36 39.7465C103.572 40.5923 101.381 40.0757 99.7474 39.0548C98.6141 38.3465 98.2474 38.5632 97.7141 39.4423C96.8391 40.884 95.7557 41.959 94.0516 42.5757C92.0891 43.284 90.5766 45.0423 90.3891 46.9507C90.1182 49.8299 88.1974 51.0798 86.1058 51.5382C83.6974 52.0673 82.3016 53.7965 81.1016 55.2549C79.1724 57.609 77.2183 60.0173 75.5349 62.5924C75.2016 63.1007 74.8474 63.7507 75.2058 64.2924C75.9349 65.3882 75.5849 66.5382 75.7266 67.6632C76.1183 70.8299 74.9349 73.3257 73.2599 75.7757C73.1432 75.9465 72.9599 76.259 73.0224 76.3424C74.0016 77.6299 73.4599 79.0715 73.5224 80.4632C73.5557 81.1632 74.2391 81.5299 74.8016 81.8757C75.0766 82.0424 75.5849 82.0673 75.6641 82.2715C76.6349 84.6882 79.5307 85.8757 79.7849 88.7757C79.8432 89.4882 80.5891 90.1174 81.2641 90.4924C83.0683 91.4882 84.6766 92.7632 86.1891 94.1007C88.3766 96.0382 90.6516 96.5674 93.3724 95.4632C95.3932 94.6424 97.4683 94.5799 99.5224 95.3924C100.227 95.6715 100.768 95.4049 101.406 95.1424C104.418 93.9299 107.402 92.6465 110.781 92.7174C112.51 92.7507 113.681 93.2965 114.185 94.9799C114.56 96.2507 115.46 96.634 116.622 96.284C117.443 96.0382 118.264 96.134 119.081 96.0299C120.452 95.859 122.468 97.1757 122.364 98.4882C122.193 100.555 122.377 102.772 121.327 104.634C120.547 106.013 120.885 107.017 121.743 108.038C122.343 108.755 122.989 109.459 123.722 110.034C126.727 112.417 127.439 116.034 128.881 119.255C129.002 119.538 129.022 119.938 128.918 120.226C128.564 121.234 128.947 122.072 129.452 122.876C130.26 124.167 130.164 125.734 129.264 126.555C127.268 128.376 127.027 130.817 126.314 133.072C125.847 134.572 125.756 136.226 126.668 137.717C127.685 139.355 128.752 140.972 129.693 142.651C130.193 143.555 131.085 144.367 131.052 145.438C130.997 147.517 131.835 149.417 132.047 151.434C132.206 152.984 132.86 154.234 133.968 155.338C135.831 157.176 136.531 159.684 137.589 161.972C137.735 162.28 137.747 162.822 137.564 163.084C136.785 164.251 137.577 165.176 138.177 165.855C138.864 166.634 139.802 167.142 141.131 166.759C143.172 166.172 145.264 165.83 147.468 166.051C149.622 166.267 151.664 165.676 153.36 164.072C155.806 161.751 158.26 159.413 160.931 157.372C162.602 156.097 163.189 154.422 163.202 152.684C163.21 151.434 163.635 151.013 164.56 150.651C165.281 150.372 166.018 150.117 166.743 149.842C167.385 149.601 167.86 149.251 168.039 148.492C168.535 146.426 168.814 144.401 167.856 142.388C167.602 141.842 167.531 141.251 168.047 140.872C170.352 139.209 172.247 136.972 175.093 136.072C177.847 135.209 179.281 133.03 179.147 130.147C179.114 129.434 179.164 128.717 179.252 128.005C179.506 125.934 180.372 123.784 178.485 121.976C178.452 121.942 178.464 121.867 178.435 121.826C177.239 119.926 178.935 117.451 177.181 115.617C177.002 115.434 177.364 114.697 177.535 114.238C179.022 110.259 182.072 107.434 184.881 104.442C187.264 101.909 190.293 100.109 192.693 97.5715C195.785 94.3049 197.056 90.109 198.86 86.1965C199.277 85.2965 199.41 84.0965 199.327 82.9674Z" fill="#C2A365"/>
<path d="M187.519 147.844L187.685 147.081C188.381 143.827 189.098 140.456 190.206 137.186C190.523 136.252 191.256 134.065 194.031 133.431L194.439 133.34C194.431 133.327 194.431 133.319 194.423 133.306C194.227 131.719 194.081 130.356 193.885 128.998C193.819 128.556 193.548 128.169 193.127 127.965C192.827 127.823 192.523 128.023 192.498 128.302C192.389 129.565 191.139 129.973 190.598 130.877C189.381 132.902 187.764 134.169 185.364 134.615C183.269 135.015 182.489 136.311 182.889 138.377C183.339 140.661 182.91 142.627 181.181 144.248C180.277 145.098 180.064 146.127 180.406 147.261C180.606 147.911 180.698 148.548 180.631 149.211C180.473 150.765 181.344 151.727 182.598 152.327C183.469 152.748 186.235 151.444 186.656 150.49C186.881 149.973 187.119 149.465 187.364 148.956C187.36 148.486 187.46 148.086 187.519 147.844Z" fill="#C2A365"/>
<path d="M169.949 174.253C171.954 174.432 173.12 173.669 174.045 172.765C177.283 169.603 181.358 167.911 185.383 166.132C189.395 164.357 193.499 162.178 195.945 158.823C197.887 156.153 200.412 153.403 200.983 149.707C201.829 144.253 202.954 138.848 204.562 133.561C205.224 131.357 206.729 129.965 208.691 128.965C210.099 128.248 210.82 128.611 210.774 130.286C210.558 138.315 209.379 146.236 208.012 154.132C207.754 155.636 206.983 156.936 205.987 158.136C202.083 162.869 198.216 167.636 194.349 172.398C193.087 173.957 191.533 175.136 189.87 176.223C183.695 180.236 177.645 184.432 171.845 188.973C169.454 190.848 167.099 192.79 165.504 195.432C164.904 196.423 164.208 196.507 163.216 196.132C157.395 193.903 152.183 190.728 147.612 186.498C146.704 185.657 146.42 184.861 147.104 183.732C147.929 182.361 148.279 180.815 148.491 179.219C149.066 174.869 151.495 171.49 154.645 168.64C158.345 165.282 162.566 162.848 167.604 161.878C172.516 160.928 177.024 159.115 180.833 155.657C183.516 153.223 187.02 152.136 190.412 151.032C192.466 150.361 193.741 151.265 195.091 153.953C195.937 155.657 196.083 157.136 194.295 158.54C190.524 161.519 186.616 164.298 182.099 165.998C177.483 167.732 174.312 171.365 169.949 174.253Z" fill="#00754A"/>
<path d="M196.307 151.748C197.786 144.823 198.802 137.548 201.315 130.61C201.515 130.064 201.94 129.577 202.344 129.135C203.236 128.177 204.277 127.419 205.598 127.16C206.044 127.081 206.565 127.01 206.819 127.494C207.061 127.952 206.857 128.406 206.452 128.681C203.402 130.802 202.832 134.164 202.09 137.389C201.098 141.731 200.252 146.114 199.361 150.477C199.186 151.385 199.015 152.273 198.207 152.856C197.798 153.148 197.457 153.727 196.844 153.414C196.282 153.119 196.352 152.527 196.307 151.748Z" fill="#00754A"/>
<path d="M199.292 130.375C199.642 131.546 199.05 132.412 198.813 133.325C197.458 138.508 196.413 143.75 195.338 148.992C195.238 149.479 195.504 150.617 194.346 150.292C193.575 150.079 193.108 149.463 193.279 148.55C194.329 143.221 195.25 137.871 196.979 132.712C197.35 131.612 198.046 130.767 199.292 130.375Z" fill="#00754A"/>
<path d="M194.526 135.577C193.613 140.01 192.738 144.315 191.838 148.615C191.659 149.452 190.926 149.623 190.243 149.556C189.272 149.456 189.609 148.681 189.718 148.156C190.455 144.698 191.168 141.235 192.305 137.885C192.643 136.894 193.063 135.91 194.526 135.577Z" fill="#00754A"/>
<path d="M116.892 174.253C114.887 174.432 113.721 173.669 112.796 172.765C109.558 169.603 105.483 167.911 101.458 166.132C97.4457 164.357 93.3415 162.178 90.8957 158.823C88.954 156.153 86.429 153.403 85.8582 149.707C85.0123 144.253 83.8873 138.848 82.279 133.561C81.6165 131.357 80.1123 129.965 78.1498 128.965C76.7415 128.248 76.0207 128.611 76.0665 130.286C76.2832 138.315 77.4623 146.236 78.829 154.132C79.0873 155.636 79.8582 156.936 80.854 158.136C84.7582 162.869 88.6248 167.636 92.4915 172.398C93.754 173.957 95.3082 175.136 96.9707 176.223C103.146 180.236 109.192 184.432 114.996 188.973C117.387 190.848 119.742 192.79 121.337 195.432C121.937 196.423 122.633 196.507 123.625 196.132C129.442 193.903 134.658 190.728 139.229 186.498C140.137 185.657 140.421 184.861 139.737 183.732C138.912 182.361 138.562 180.815 138.35 179.219C137.775 174.869 135.346 171.49 132.196 168.64C128.496 165.282 124.275 162.848 119.237 161.878C114.325 160.928 109.817 159.115 106.008 155.657C103.325 153.223 99.8207 152.136 96.4248 151.032C94.3748 150.361 93.0998 151.265 91.7498 153.953C90.904 155.657 90.7582 157.136 92.5457 158.54C96.3165 161.519 100.225 164.298 104.742 165.998C109.354 167.732 112.529 171.365 116.892 174.253Z" fill="#00754A"/>
<path d="M90.5351 151.748C89.056 144.823 88.0393 137.548 85.5226 130.61C85.3268 130.064 84.9018 129.577 84.4976 129.135C83.606 128.177 82.5643 127.419 81.2435 127.16C80.7976 127.081 80.2768 127.01 80.0226 127.494C79.781 127.952 79.981 128.406 80.3851 128.681C83.4393 130.802 84.0101 134.164 84.7518 137.389C85.7435 141.731 86.5893 146.114 87.481 150.477C87.656 151.385 87.8268 152.273 88.6351 152.856C89.0435 153.148 89.3851 153.727 89.9976 153.414C90.5601 153.119 90.4893 152.527 90.5351 151.748Z" fill="#00754A"/>
<path d="M87.5495 130.375C87.1995 131.546 87.7911 132.412 88.0286 133.325C89.3828 138.508 90.4245 143.75 91.5036 148.992C91.6036 149.479 91.337 150.617 92.4953 150.292C93.2661 150.079 93.7328 149.463 93.562 148.55C92.512 143.221 91.5911 137.871 89.862 132.712C89.4911 131.612 88.7911 130.767 87.5495 130.375Z" fill="#00754A"/>
<path d="M92.3145 135.577C93.227 140.01 94.102 144.315 95.002 148.615C95.1811 149.452 95.9145 149.623 96.5978 149.556C97.5686 149.456 97.2311 148.681 97.1228 148.156C96.3853 144.698 95.6728 141.235 94.5353 137.885C94.1978 136.894 93.777 135.91 92.3145 135.577Z" fill="#00754A"/>
<path d="M385.372 75.5714L360.772 11.8131L335.693 75.5714H385.372ZM309.83 115.517L354.934 2.41309H366.922L412.343 115.517H401.143L389.001 84.9673H332.384L320.397 115.517H309.83Z" fill="#951F39"/>
<path d="M429.058 115.517V45.4957H413.129V36.879H429.058V20.1165C429.058 6.64154 434.579 0.533203 448.141 0.533203C451.137 0.533203 454.291 1.6332 457.129 2.2582V9.77487C455.237 9.46237 453.187 9.14987 451.296 9.14987C438.362 9.14987 438.046 15.5707 438.521 26.854V36.879H456.5V45.4957H438.521V115.517H429.058Z" fill="#951F39"/>
<path d="M480.314 115.517H470.852V54.5796C471.01 48.4712 470.377 42.2046 470.064 36.8796H479.839L480.314 48.4712H480.627C483.469 40.4796 490.564 34.8421 498.452 34.5296C501.606 34.3712 504.76 34.5296 507.914 34.6837V43.7712C506.019 43.6129 503.969 43.1462 502.077 43.1462C488.039 43.1462 480.627 53.1712 480.314 68.2087V115.517Z" fill="#951F39"/>
<path d="M529.045 115.518H519.582V36.8807H529.045V115.518ZM529.832 14.1641H518.795V2.41406H529.832V14.1641Z" fill="#951F39"/>
<path d="M600.485 61.0014C599.698 48.943 591.973 43.143 578.881 43.143C564.373 43.143 555.381 58.1805 555.381 76.0389C555.381 94.0555 564.373 109.251 578.881 109.251C591.181 109.251 599.698 101.731 600.485 90.9222H610.735C608.214 108.939 597.806 117.868 579.827 117.868C556.168 117.868 545.131 97.6597 545.131 76.1972C545.131 54.893 556.96 34.5264 580.456 34.5264C596.702 34.5264 609.948 44.2389 610.735 61.0014H600.485Z" fill="#951F39"/>
<path d="M646.538 109.251C667.196 109.251 671.142 92.3347 670.196 75.8847C656.788 76.3514 628.717 73.8472 628.717 93.5847C628.717 104.239 636.917 109.251 646.538 109.251ZM670.196 60.0639C669.246 47.218 662.625 43.143 651.425 43.143C641.492 43.143 633.292 46.1222 632.03 56.7722H621.938C624.3 40.6347 636.442 34.5264 651.584 34.5264C669.092 34.5264 679.971 42.518 679.655 60.5347V97.8139C679.5 103.922 680.13 110.193 680.446 115.514H670.667L670.35 103.922H670.034L669.563 105.022C666.092 111.601 655.525 117.868 644.805 117.868C630.138 117.868 618.463 108.939 618.463 93.5847C618.463 82.9347 624.934 74.7889 634.396 70.8722C644.963 66.3264 658.68 67.893 670.196 67.268V60.0639Z" fill="#951F39"/>
<path d="M773.179 28.8885C771.287 15.101 759.299 9.46347 746.366 9.46347C717.191 9.46347 708.362 35.7801 708.362 58.9635C708.362 82.151 717.191 108.468 746.366 108.468C758.987 108.468 771.599 102.201 774.441 88.1051H785.483C782.166 107.055 764.662 117.868 746.366 117.868C711.833 117.868 697.32 90.2968 697.32 58.9635C697.32 27.9468 711.987 0.0634766 746.366 0.0634766C764.979 0.0634766 782.641 8.52181 784.22 28.8885H773.179Z" fill="#951F39"/>
<path d="M836.576 106.118C868.592 106.118 881.68 87.4766 881.68 58.9682C881.68 25.5974 861.967 10.8724 829.638 11.8141H813.551V106.118H836.576ZM834.055 2.41406C871.43 2.41406 892.722 21.5266 892.722 58.9682C892.722 96.4057 871.43 115.518 834.055 115.518H803.301V2.41406H834.055Z" fill="#951F39"/>
<path d="M984.349 28.8885C982.457 15.101 970.469 9.46347 957.536 9.46347C928.361 9.46347 919.532 35.7801 919.532 58.9635C919.532 82.151 928.361 108.468 957.536 108.468C970.153 108.468 982.769 102.201 985.611 88.1051H996.649C993.336 107.055 975.832 117.868 957.536 117.868C922.999 117.868 908.49 90.2968 908.49 58.9635C908.49 27.9468 923.157 0.0634766 957.536 0.0634766C976.149 0.0634766 993.811 8.52181 995.386 28.8885H984.349Z" fill="#951F39"/>
<path d="M311.75 168.204C311.75 156.866 311.867 146.399 324.513 146.399C334.754 146.399 334.933 154.774 334.933 158.549H331.183C331.183 153.899 329.896 149.541 324.513 149.541C315.617 149.541 315.496 157.037 315.496 168.204C315.496 179.37 315.617 186.87 324.513 186.87C329.371 186.87 331.183 182.566 331.242 177.158H335.225C335.225 180.183 334.521 190.012 324.513 190.012C311.867 190.012 311.75 179.541 311.75 168.204Z" fill="#951F39"/>
<path d="M324.513 146.815C312.167 146.815 312.167 157.202 312.167 168.206C312.167 179.206 312.167 189.598 324.513 189.598C333.476 189.598 334.726 181.506 334.801 177.573H331.655C331.484 183.84 328.955 187.285 324.513 187.285C315.08 187.285 315.08 178.865 315.08 168.206C315.08 157.544 315.08 149.127 324.513 149.127C329.113 149.127 331.496 152.156 331.601 158.135H334.513C334.501 154.431 334.138 146.815 324.513 146.815ZM324.513 190.427C311.334 190.427 311.334 179.127 311.334 168.206C311.334 157.281 311.334 145.985 324.513 145.985C335.351 145.985 335.351 155.115 335.351 158.552V158.965H330.767V158.552C330.767 152.769 328.721 149.956 324.513 149.956C315.913 149.956 315.913 157.215 315.913 168.206C315.913 179.194 315.913 186.456 324.513 186.456C329.646 186.456 330.78 181.398 330.826 177.156L330.83 176.744H335.642V177.16C335.642 180.273 334.842 190.427 324.513 190.427Z" fill="#951F39"/>
<path d="M356.765 172.45C356.765 165.938 355.711 162.042 350.09 162.042C344.469 162.042 343.419 165.938 343.419 172.45H356.765ZM343.419 175.238V177.508C343.419 181.579 344.532 186.988 350.09 186.988C354.482 186.988 356.648 184.196 356.59 180.242H360.277C359.865 187.333 356.002 189.775 350.09 189.775C344.998 189.775 339.902 187.742 339.902 178.846V171.633C339.902 163.146 343.477 159.25 350.09 159.25C360.277 159.25 360.277 166.517 360.277 175.238H343.419Z" fill="#951F39"/>
<path d="M343.836 172.035H356.345C356.299 165.818 355.236 162.456 350.09 162.456C344.945 162.456 343.878 165.818 343.836 172.035ZM357.182 172.864H342.999V172.452C342.999 165.768 344.186 161.627 350.09 161.627C355.995 161.627 357.182 165.768 357.182 172.452V172.864ZM350.09 159.664C343.515 159.664 340.32 163.581 340.32 171.635V178.847C340.32 185.922 343.515 189.36 350.09 189.36C356.245 189.36 359.349 186.593 359.828 180.656H357.003C356.953 182.689 356.315 184.377 355.149 185.556C353.949 186.764 352.199 187.402 350.09 187.402C345.515 187.402 342.999 183.889 342.999 177.506V174.822H359.857C359.853 166.322 359.699 159.664 350.09 159.664ZM350.09 190.193C343.053 190.193 339.486 186.377 339.486 178.847V171.635C339.486 163.139 343.053 158.835 350.09 158.835C360.695 158.835 360.695 166.435 360.695 175.239V175.656H343.836V177.506C343.836 181.643 344.92 186.572 350.09 186.572C351.999 186.572 353.499 186.031 354.553 184.972C355.64 183.872 356.199 182.243 356.17 180.247L356.165 179.827H360.72L360.695 180.268C360.307 186.943 356.84 190.193 350.09 190.193Z" fill="#951F39"/>
<path d="M369.583 189.197H366.07V159.83H369.583V163.435H369.699C371.395 160.993 373.679 159.247 376.841 159.247C384.158 159.247 384.92 164.66 384.92 168.497V189.197H381.408V168.668C381.408 165.239 380.062 162.043 375.962 162.043C372.804 162.043 369.583 164.193 369.583 170.764V189.197Z" fill="#951F39"/>
<path d="M381.823 188.781H384.498V168.498C384.498 164.381 383.628 159.664 376.84 159.664C374.14 159.664 371.915 160.973 370.044 163.669L369.919 163.852H369.165V160.248H366.486V188.781H369.165V170.764C369.165 162.285 374.365 161.627 375.961 161.627C379.686 161.627 381.823 164.194 381.823 168.669V188.781ZM385.336 189.61H380.986V168.669C380.986 166.348 380.336 162.456 375.961 162.456C374.169 162.456 369.998 163.264 369.998 170.764V189.61H365.648V159.414H369.998V162.339C371.894 160.01 374.194 158.831 376.84 158.831C385.336 158.831 385.336 166.106 385.336 168.498V189.61Z" fill="#951F39"/>
<path d="M388.838 162.621V159.83H393.58V153.784L397.092 152.271V159.83H403.063V162.621H397.092V181.463C397.092 185.359 397.505 186.288 400.313 186.288C401.48 186.288 402.3 186.23 403.063 186.113V189.138C402.013 189.255 400.838 189.313 399.725 189.313C394.984 189.313 393.58 187.217 393.58 183.613V162.621H388.838Z" fill="#951F39"/>
<path d="M389.257 162.206H393.999V183.615C393.999 186.785 394.974 188.898 399.728 188.898C400.712 188.898 401.732 188.852 402.645 188.765V186.59C401.966 186.669 401.241 186.706 400.316 186.706C397.007 186.706 396.674 185.185 396.674 181.465V162.206H402.645V160.248H396.674V152.902L393.999 154.056V160.248H389.257V162.206ZM399.728 189.727C395.191 189.727 393.166 187.844 393.166 183.615V163.035H388.42V159.415H393.166V153.51L397.512 151.64V159.415H403.482V163.035H397.512V181.465C397.512 185.294 397.878 185.873 400.316 185.873C401.42 185.873 402.224 185.823 403.003 185.702L403.482 185.627V189.51L403.112 189.548C402.062 189.669 400.895 189.727 399.728 189.727Z" fill="#951F39"/>
<path d="M410.907 163.785H411.024C412.486 160.994 415.59 159.252 419.161 159.252V162.798C414.186 162.389 410.907 165.356 410.907 170.298V189.198H407.395V159.831H410.907V163.785Z" fill="#951F39"/>
<path d="M407.812 188.781H410.491V170.298C410.491 167.764 411.312 165.677 412.866 164.252C414.341 162.906 416.375 162.244 418.745 162.356V159.673C415.525 159.802 412.733 161.427 411.395 163.977L411.279 164.202H410.491V160.248H407.812V188.781ZM411.325 189.61H406.975V159.414H411.325V162.523C413.037 160.219 415.929 158.831 419.162 158.831H419.579V163.248L419.129 163.21C416.791 163.014 414.825 163.594 413.433 164.864C412.054 166.123 411.325 168.006 411.325 170.298V189.61Z" fill="#951F39"/>
<path d="M438.948 172.45C438.948 165.938 437.894 162.042 432.273 162.042C426.652 162.042 425.598 165.938 425.598 172.45H438.948ZM425.598 175.238V177.508C425.598 181.579 426.711 186.988 432.273 186.988C436.665 186.988 438.832 184.196 438.773 180.242H442.461C442.048 187.333 438.186 189.775 432.273 189.775C427.182 189.775 422.09 187.742 422.09 178.846V171.633C422.09 163.146 425.657 159.25 432.273 159.25C442.461 159.25 442.461 166.517 442.461 175.238H425.598Z" fill="#951F39"/>
<path d="M426.018 172.035H438.526C438.48 165.818 437.418 162.456 432.272 162.456C427.126 162.456 426.064 165.818 426.018 172.035ZM439.364 172.864H425.18V172.452C425.18 165.768 426.368 161.627 432.272 161.627C438.18 161.627 439.364 165.768 439.364 172.452V172.864ZM432.272 159.664C425.701 159.664 422.505 163.581 422.505 171.635V178.847C422.505 185.922 425.701 189.36 432.272 189.36C438.426 189.36 441.53 186.593 442.014 180.656H439.189C439.139 182.689 438.501 184.377 437.33 185.556C436.135 186.764 434.385 187.402 432.272 187.402C427.697 187.402 425.18 183.889 425.18 177.506V174.822H442.043C442.039 166.322 441.885 159.664 432.272 159.664ZM432.272 190.193C425.239 190.193 421.668 186.377 421.668 178.847V171.635C421.668 163.139 425.239 158.835 432.272 158.835C442.876 158.835 442.876 166.435 442.876 175.239V175.656H426.018V177.506C426.018 181.643 427.101 186.572 432.272 186.572C434.18 186.572 435.68 186.031 436.735 184.972C437.826 183.872 438.385 182.239 438.355 180.247L438.347 179.827H442.901L442.876 180.268C442.489 186.943 439.022 190.193 432.272 190.193Z" fill="#951F39"/>
<path d="M456.099 189.777C449.715 189.777 447.199 186.698 447.257 180.473H450.828C450.828 184.49 451.765 187.161 456.274 187.161C459.669 187.161 461.307 185.244 461.307 181.986C461.307 174.311 448.019 176.29 448.019 166.577C448.019 161.169 451.765 159.248 456.919 159.248C462.774 159.248 464.644 163.261 464.644 167.74H461.19C461.015 164.019 460.019 162.04 456.04 162.04C453.519 162.04 451.532 163.669 451.532 166.286C451.532 173.615 464.819 171.636 464.819 181.465C464.819 186.986 461.603 189.777 456.099 189.777Z" fill="#951F39"/>
<path d="M447.674 180.889C447.703 183.877 448.378 185.989 449.733 187.343C451.083 188.702 453.166 189.36 456.099 189.36C461.528 189.36 464.399 186.631 464.399 181.464C464.399 176.447 460.77 174.668 457.262 172.952C454.099 171.402 451.112 169.939 451.112 166.289C451.112 163.539 453.137 161.627 456.037 161.627C460.278 161.627 461.353 163.793 461.587 167.327H464.22C464.124 163.735 462.733 159.664 456.916 159.664C451.291 159.664 448.437 161.989 448.437 166.577C448.437 171.46 451.995 173.243 455.437 174.968C458.528 176.518 461.724 178.118 461.724 181.985C461.724 185.589 459.791 187.577 456.274 187.577C451.316 187.577 450.47 184.414 450.412 180.889H447.674ZM456.099 190.193C452.933 190.193 450.658 189.452 449.137 187.931C447.558 186.352 446.808 183.906 446.837 180.472L446.841 180.06H451.245V180.472C451.245 184.347 452.087 186.743 456.274 186.743C459.337 186.743 460.891 185.143 460.891 181.985C460.891 178.627 458.187 177.277 455.058 175.71C451.566 173.96 447.599 171.972 447.599 166.577C447.599 161.51 450.82 158.835 456.916 158.835C462.166 158.835 465.062 161.997 465.062 167.739V168.156H460.791L460.77 167.76C460.608 164.318 459.808 162.456 456.037 162.456C453.633 162.456 451.949 164.031 451.949 166.289C451.949 169.422 454.583 170.714 457.633 172.206C461.195 173.952 465.237 175.931 465.237 181.464C465.237 187.093 461.991 190.193 456.099 190.193Z" fill="#951F39"/>
<path d="M485.128 162.622H480.387V159.83H485.128V154.889C485.128 152.097 485.537 146.98 492.683 146.98C493.208 146.98 493.791 147.097 494.67 147.214V150.122H492.037C488.641 150.122 488.641 153.143 488.641 154.83V159.83H494.612V162.622H488.641V189.197H485.128V162.622Z" fill="#951F39"/>
<path d="M485.548 188.781H488.223V162.206H494.194V160.248H488.223V154.831C488.223 153.164 488.223 149.706 492.04 149.706H494.252V147.573L493.923 147.527C493.423 147.452 493.027 147.394 492.681 147.394C486.356 147.394 485.548 151.398 485.548 154.885V160.248H480.806V162.206H485.548V188.781ZM489.06 189.61H484.71V163.035H479.969V159.414H484.71V154.885C484.71 152.831 484.71 146.564 492.681 146.564C493.09 146.564 493.51 146.627 494.044 146.706L495.09 146.852V150.535H492.04C489.29 150.535 489.06 152.656 489.06 154.831V159.414H495.031V163.035H489.06V189.61Z" fill="#951F39"/>
<path d="M501.286 174.486C501.286 182.161 502.165 186.986 507.961 186.986C513.753 186.986 514.632 182.161 514.632 174.486C514.632 166.869 513.753 162.04 507.961 162.04C502.165 162.04 501.286 166.869 501.286 174.486ZM497.773 177.681V171.344C497.773 163.727 501.048 159.248 507.961 159.248C514.869 159.248 518.144 163.727 518.144 171.344V177.681C518.144 185.302 514.869 189.777 507.961 189.777C501.048 189.777 497.773 185.302 497.773 177.681Z" fill="#951F39"/>
<path d="M507.958 162.456C502.699 162.456 501.704 166.685 501.704 174.485C501.704 182.323 502.699 186.569 507.958 186.569C513.216 186.569 514.216 182.323 514.216 174.485C514.216 166.685 513.216 162.456 507.958 162.456ZM507.958 187.402C501.408 187.402 500.866 181.294 500.866 174.485C500.866 167.71 501.408 161.627 507.958 161.627C514.508 161.627 515.049 167.71 515.049 174.485C515.049 181.294 514.508 187.402 507.958 187.402ZM507.958 159.664C499.887 159.664 498.191 166.014 498.191 171.344V177.681C498.191 183.01 499.887 189.36 507.958 189.36C516.029 189.36 517.724 183.01 517.724 177.681V171.344C517.724 166.014 516.029 159.664 507.958 159.664ZM507.958 190.194C501.02 190.194 497.354 185.869 497.354 177.681V171.344C497.354 163.16 501.02 158.831 507.958 158.831C514.895 158.831 518.562 163.16 518.562 171.344V177.681C518.562 185.869 514.895 190.194 507.958 190.194Z" fill="#951F39"/>
<path d="M527.684 163.785H527.801C529.268 160.994 532.368 159.252 535.939 159.252V162.798C530.959 162.389 527.684 165.356 527.684 170.298V189.198H524.172V159.831H527.684V163.785Z" fill="#951F39"/>
<path d="M524.589 188.781H527.264V170.298C527.264 167.764 528.085 165.677 529.644 164.252C531.119 162.906 533.127 162.244 535.519 162.356V159.673C532.302 159.802 529.51 161.427 528.169 163.977L528.052 164.202H527.264V160.248H524.589V188.781ZM528.102 189.61H523.752V159.414H528.102V162.523C529.81 160.219 532.702 158.831 535.939 158.831H536.356V163.248L535.902 163.21C533.552 163.019 531.602 163.589 530.21 164.864C528.831 166.123 528.102 168.006 528.102 170.298V189.61Z" fill="#951F39"/>
<path d="M556.599 186.056H561.166C572.462 186.056 573.579 183.035 573.579 165.881C573.579 153.843 571.937 150.351 561.516 150.351H556.599V186.056ZM552.854 147.214H564.037C575.862 147.214 577.324 154.072 577.324 168.381C577.324 182.335 575.274 189.197 562.512 189.197H552.854V147.214Z" fill="#951F39"/>
<path d="M557.019 185.64H561.165C571.815 185.64 573.161 183.424 573.161 165.878C573.161 153.986 571.711 150.77 561.519 150.77H557.019V185.64ZM561.165 186.47H556.181V149.936H561.519C572.273 149.936 573.998 153.724 573.998 165.878C573.998 184.699 571.731 186.47 561.165 186.47ZM553.273 188.782H562.515C574.831 188.782 576.906 182.486 576.906 168.378C576.906 154.274 575.64 147.628 564.036 147.628H553.273V188.782ZM562.515 189.611H552.436V146.799H564.036C576.819 146.799 577.744 154.953 577.744 168.378C577.744 182.765 575.465 189.611 562.515 189.611Z" fill="#951F39"/>
<path d="M585.162 159.831H588.675V189.198H585.162V159.831ZM584.754 147.215H589.087V151.632H584.754V147.215Z" fill="#951F39"/>
<path d="M585.175 151.219H588.671V147.631H585.175V151.219ZM589.505 152.048H584.338V146.798H589.505V152.048ZM585.584 188.781H588.259V160.248H585.584V188.781ZM589.096 189.61H584.746V159.414H589.096V189.61Z" fill="#951F39"/>
<path d="M604.249 189.777C597.866 189.777 595.349 186.698 595.407 180.473H598.982C598.982 184.49 599.916 187.161 604.424 187.161C607.82 187.161 609.461 185.244 609.461 181.986C609.461 174.311 596.17 176.29 596.17 166.577C596.17 161.169 599.916 159.248 605.066 159.248C610.924 159.248 612.795 163.261 612.795 167.74H609.341C609.166 164.019 608.17 162.04 604.191 162.04C601.67 162.04 599.682 163.669 599.682 166.286C599.682 173.615 612.97 171.636 612.97 181.465C612.97 186.986 609.753 189.777 604.249 189.777Z" fill="#951F39"/>
<path d="M595.825 180.889C595.854 183.872 596.529 185.989 597.879 187.343C599.233 188.702 601.32 189.36 604.25 189.36C609.683 189.36 612.554 186.631 612.554 181.464C612.554 176.447 608.925 174.668 605.412 172.952C602.25 171.402 599.266 169.939 599.266 166.289C599.266 163.539 601.291 161.627 604.191 161.627C608.412 161.627 609.508 163.885 609.737 167.327H612.37C612.275 163.735 610.883 159.664 605.066 159.664C599.437 159.664 596.587 161.989 596.587 166.577C596.587 171.46 600.145 173.243 603.587 174.968C606.679 176.518 609.879 178.118 609.879 181.985C609.879 185.589 607.941 187.577 604.425 187.577C599.466 187.577 598.62 184.414 598.566 180.889H595.825ZM604.25 190.193C601.083 190.193 598.804 189.452 597.283 187.931C595.708 186.347 594.958 183.906 594.987 180.472L594.991 180.06H599.4V180.472C599.4 184.347 600.241 186.743 604.425 186.743C607.487 186.743 609.041 185.143 609.041 181.985C609.041 178.627 606.337 177.277 603.208 175.71C599.716 173.96 595.75 171.972 595.75 166.577C595.75 161.51 598.97 158.835 605.066 158.835C610.32 158.835 613.212 161.997 613.212 167.739V168.156H608.941L608.925 167.76C608.762 164.318 607.958 162.456 604.191 162.456C601.783 162.456 600.1 164.031 600.1 166.289C600.1 169.422 602.733 170.714 605.783 172.206C609.35 173.952 613.387 175.931 613.387 181.464C613.387 187.093 610.145 190.193 604.25 190.193Z" fill="#951F39"/>
<path d="M634.687 172.45C634.687 165.938 633.633 162.042 628.012 162.042C622.391 162.042 621.341 165.938 621.341 172.45H634.687ZM621.341 175.238V177.508C621.341 181.579 622.449 186.988 628.012 186.988C632.403 186.988 634.566 184.196 634.508 180.242H638.195C637.791 187.333 633.924 189.775 628.012 189.775C622.92 189.775 617.824 187.742 617.824 178.846V171.633C617.824 163.146 621.399 159.25 628.012 159.25C638.195 159.25 638.195 166.517 638.195 175.238H621.341Z" fill="#951F39"/>
<path d="M621.76 172.035H634.268C634.223 165.818 633.16 162.456 628.014 162.456C622.868 162.456 621.806 165.818 621.76 172.035ZM635.106 172.864H620.923V172.452C620.923 165.768 622.106 161.627 628.014 161.627C633.918 161.627 635.106 165.768 635.106 172.452V172.864ZM628.014 159.664C621.439 159.664 618.243 163.581 618.243 171.635V178.847C618.243 185.922 621.439 189.36 628.014 189.36C634.168 189.36 637.273 186.593 637.752 180.656H634.927C634.877 182.689 634.239 184.377 633.073 185.556C631.873 186.764 630.123 187.402 628.014 187.402C623.439 187.402 620.923 183.889 620.923 177.506V174.822H637.781C637.777 166.322 637.623 159.664 628.014 159.664ZM628.014 190.193C620.977 190.193 617.41 186.377 617.41 178.847V171.635C617.41 163.139 620.977 158.835 628.014 158.835C638.618 158.835 638.618 166.435 638.618 175.239V175.656H621.76V177.506C621.76 181.643 622.843 186.572 628.014 186.572C629.923 186.572 631.423 186.031 632.473 184.972C633.564 183.872 634.123 182.243 634.093 180.247L634.085 179.827H638.643L638.618 180.268C638.231 186.943 634.764 190.193 628.014 190.193Z" fill="#951F39"/>
<path d="M659.034 174.193C654.001 174.368 646.393 173.785 646.393 180.939C646.393 184.251 648.088 186.985 651.718 186.985C655.759 186.985 659.034 183.385 659.034 179.543V174.193ZM659.272 185.593H659.155C657.28 188.38 654.413 189.776 650.78 189.776C645.509 189.776 642.643 186.23 642.643 181.114C642.643 170.822 653.063 171.868 659.034 171.405V168.96C659.034 164.66 657.747 162.043 653.063 162.043C649.847 162.043 647.268 163.61 647.268 167.101H643.522C643.818 161.46 648.205 159.247 653.359 159.247C656.343 159.247 662.551 159.543 662.551 167.043V181.81C662.551 183.905 662.551 185.764 662.901 189.197H659.272V185.593Z" fill="#951F39"/>
<path d="M658.616 174.621C658.279 174.63 657.933 174.638 657.579 174.646C652.533 174.746 646.808 174.859 646.808 180.938C646.808 183.663 648.1 186.571 651.716 186.571C655.395 186.571 658.616 183.288 658.616 179.542V174.621ZM651.716 187.401C648.175 187.401 645.975 184.926 645.975 180.938C645.975 174.042 652.67 173.909 657.562 173.813C658.066 173.805 658.554 173.792 659.02 173.776L659.454 173.763V179.542C659.454 183.73 655.837 187.401 651.716 187.401ZM653.062 161.626C658.691 161.626 659.454 165.334 659.454 168.959V171.788L659.066 171.817C658.312 171.876 657.479 171.909 656.608 171.951C650.575 172.201 643.062 172.517 643.062 181.113C643.062 186.28 645.95 189.363 650.783 189.363C654.325 189.363 657.025 188.017 658.804 185.363L658.929 185.176H659.687V188.78H662.437C662.133 185.617 662.133 183.846 662.133 181.813V167.042C662.133 160.43 657.125 159.663 653.358 159.663C650.704 159.663 644.57 160.359 643.97 166.684H646.866C647.05 163.551 649.391 161.626 653.062 161.626ZM650.783 190.192C645.504 190.192 642.225 186.713 642.225 181.113C642.225 171.721 650.52 171.371 656.575 171.117C657.287 171.088 657.975 171.059 658.616 171.017V168.959C658.616 164.28 657.062 162.455 653.062 162.455C649.695 162.455 647.687 164.192 647.687 167.101V167.513H643.083L643.104 167.08C643.379 161.838 647.116 158.834 653.358 158.834C655.733 158.834 662.966 158.834 662.966 167.042V181.813C662.966 183.921 662.966 185.742 663.316 189.155L663.362 189.613H658.854V186.688C656.933 188.988 654.166 190.192 650.783 190.192Z" fill="#951F39"/>
<path d="M677.241 189.777C670.858 189.777 668.341 186.698 668.399 180.473H671.974C671.974 184.49 672.908 187.161 677.416 187.161C680.812 187.161 682.449 185.244 682.449 181.986C682.449 174.311 669.162 176.29 669.162 166.577C669.162 161.169 672.908 159.248 678.058 159.248C683.916 159.248 685.787 163.261 685.787 167.74H682.333C682.158 164.019 681.162 162.04 677.183 162.04C674.662 162.04 672.674 163.669 672.674 166.286C672.674 173.615 685.962 171.636 685.962 181.465C685.962 186.986 682.741 189.777 677.241 189.777Z" fill="#951F39"/>
<path d="M668.817 180.889C668.846 183.872 669.521 185.989 670.871 187.343C672.225 188.702 674.309 189.36 677.242 189.36C682.671 189.36 685.546 186.631 685.546 181.464C685.546 176.447 681.917 174.668 678.405 172.952C675.242 171.402 672.259 169.939 672.259 166.289C672.259 163.539 674.28 161.627 677.184 161.627C681.405 161.627 682.5 163.885 682.73 167.327H685.363C685.267 163.735 683.875 159.664 678.059 159.664C672.43 159.664 669.58 161.989 669.58 166.577C669.58 171.46 673.138 173.243 676.58 174.968C679.671 176.518 682.867 178.118 682.867 181.985C682.867 185.589 680.934 187.577 677.417 187.577C672.459 187.577 671.613 184.414 671.559 180.889H668.817ZM677.242 190.193C674.075 190.193 671.796 189.452 670.275 187.931C668.7 186.347 667.946 183.906 667.98 180.472L667.984 180.06H672.392V180.472C672.392 184.347 673.234 186.743 677.417 186.743C680.48 186.743 682.034 185.143 682.034 181.985C682.034 178.627 679.33 177.277 676.2 175.71C672.705 173.96 668.742 171.972 668.742 166.577C668.742 161.51 671.963 158.835 678.059 158.835C683.313 158.835 686.205 161.997 686.205 167.739V168.156H681.934L681.917 167.76C681.75 164.318 680.95 162.456 677.184 162.456C674.775 162.456 673.092 164.031 673.092 166.289C673.092 169.422 675.725 170.714 678.775 172.206C682.342 173.952 686.38 175.931 686.38 181.464C686.38 187.093 683.134 190.193 677.242 190.193Z" fill="#951F39"/>
<path d="M707.677 172.45C707.677 165.938 706.623 162.042 701.002 162.042C695.381 162.042 694.331 165.938 694.331 172.45H707.677ZM694.331 175.238V177.508C694.331 181.579 695.444 186.988 701.002 186.988C705.394 186.988 707.56 184.196 707.502 180.242H711.189C710.781 187.333 706.914 189.775 701.002 189.775C695.91 189.775 690.814 187.742 690.814 178.846V171.633C690.814 163.146 694.389 159.25 701.002 159.25C711.189 159.25 711.189 166.517 711.189 175.238H694.331Z" fill="#951F39"/>
<path d="M694.751 172.035H707.259C707.213 165.818 706.146 162.456 701.005 162.456C695.859 162.456 694.792 165.818 694.751 172.035ZM708.096 172.864H693.913V172.452C693.913 165.768 695.096 161.627 701.005 161.627C706.909 161.627 708.096 165.768 708.096 172.452V172.864ZM701.005 159.664C694.43 159.664 691.234 163.581 691.234 171.635V178.847C691.234 185.922 694.43 189.36 701.005 189.36C707.159 189.36 710.263 186.593 710.742 180.656H707.917C707.867 182.689 707.23 184.377 706.059 185.556C704.863 186.764 703.113 187.402 701.005 187.402C696.43 187.402 693.913 183.889 693.913 177.506V174.822H710.771C710.767 166.322 710.613 159.664 701.005 159.664ZM701.005 190.193C693.967 190.193 690.396 186.377 690.396 178.847V171.635C690.396 163.139 693.967 158.835 701.005 158.835C711.609 158.835 711.609 166.435 711.609 175.239V175.656H694.751V177.506C694.751 181.643 695.834 186.572 701.005 186.572C702.913 186.572 704.413 186.031 705.463 184.972C706.555 183.872 707.113 182.243 707.084 180.247L707.076 179.827H711.63L711.609 180.268C711.221 186.943 707.755 190.193 701.005 190.193Z" fill="#951F39"/>
<path d="M729.158 168.204C729.158 156.866 729.275 146.399 741.921 146.399C752.167 146.399 752.342 154.774 752.342 158.549H748.592C748.592 153.899 747.308 149.541 741.921 149.541C733.025 149.541 732.904 157.037 732.904 168.204C732.904 179.37 733.025 186.87 741.921 186.87C746.779 186.87 748.592 182.566 748.65 177.158H752.633C752.633 180.183 751.933 190.012 741.921 190.012C729.275 190.012 729.158 179.541 729.158 168.204Z" fill="#951F39"/>
<path d="M741.921 146.815C729.576 146.815 729.576 157.202 729.576 168.206C729.576 179.206 729.576 189.598 741.921 189.598C750.884 189.598 752.134 181.506 752.213 177.573H749.063C748.892 183.84 746.363 187.285 741.921 187.285C732.488 187.285 732.488 178.865 732.488 168.206C732.488 157.544 732.488 149.127 741.921 149.127C746.521 149.127 748.905 152.156 749.009 158.135H751.921C751.909 154.431 751.546 146.815 741.921 146.815ZM741.921 190.427C728.742 190.427 728.742 179.127 728.742 168.206C728.742 157.281 728.742 145.985 741.921 145.985C752.759 145.985 752.759 155.115 752.759 158.552V158.965H748.176V158.552C748.176 152.769 746.13 149.956 741.921 149.956C733.321 149.956 733.321 157.215 733.321 168.206C733.321 179.194 733.321 186.456 741.921 186.456C747.055 186.456 748.188 181.398 748.234 177.156L748.238 176.744H753.055V177.16C753.055 180.273 752.251 190.427 741.921 190.427Z" fill="#951F39"/>
<path d="M760.827 174.486C760.827 182.161 761.706 186.986 767.502 186.986C773.298 186.986 774.173 182.161 774.173 174.486C774.173 166.869 773.298 162.04 767.502 162.04C761.706 162.04 760.827 166.869 760.827 174.486ZM757.314 177.681V171.344C757.314 163.727 760.594 159.248 767.502 159.248C774.41 159.248 777.689 163.727 777.689 171.344V177.681C777.689 185.302 774.41 189.777 767.502 189.777C760.594 189.777 757.314 185.302 757.314 177.681Z" fill="#951F39"/>
<path d="M767.501 162.456C762.242 162.456 761.246 166.685 761.246 174.485C761.246 182.323 762.242 186.569 767.501 186.569C772.759 186.569 773.755 182.323 773.755 174.485C773.755 166.685 772.759 162.456 767.501 162.456ZM767.501 187.402C760.951 187.402 760.409 181.294 760.409 174.485C760.409 167.71 760.951 161.627 767.501 161.627C774.051 161.627 774.592 167.71 774.592 174.485C774.592 181.294 774.051 187.402 767.501 187.402ZM767.501 159.664C759.43 159.664 757.734 166.014 757.734 171.344V177.681C757.734 183.01 759.43 189.36 767.501 189.36C775.576 189.36 777.271 183.01 777.271 177.681V171.344C777.271 166.014 775.576 159.664 767.501 159.664ZM767.501 190.194C760.563 190.194 756.896 185.869 756.896 177.681V171.344C756.896 163.16 760.563 158.831 767.501 158.831C774.438 158.831 778.109 163.16 778.109 171.344V177.681C778.109 185.869 774.438 190.194 767.501 190.194Z" fill="#951F39"/>
<path d="M786.991 189.197H783.479V159.83H786.991V163.435H787.108C788.808 160.993 791.091 159.247 794.254 159.247C801.57 159.247 802.329 164.66 802.329 168.497V189.197H798.82V168.668C798.82 165.239 797.47 162.043 793.374 162.043C790.212 162.043 786.991 164.193 786.991 170.764V189.197Z" fill="#951F39"/>
<path d="M799.236 188.781H801.911V168.498C801.911 164.381 801.04 159.664 794.252 159.664C791.552 159.664 789.327 160.973 787.452 163.673L787.327 163.852H786.573V160.248H783.898V188.781H786.573V170.764C786.573 162.285 791.777 161.627 793.373 161.627C797.098 161.627 799.236 164.194 799.236 168.669V188.781ZM802.748 189.61H798.398V168.669C798.398 166.348 797.748 162.456 793.373 162.456C791.577 162.456 787.406 163.264 787.406 170.764V189.61H783.061V159.414H787.406V162.339C789.306 160.01 791.606 158.831 794.252 158.831C802.748 158.831 802.748 166.106 802.748 168.498V189.61Z" fill="#951F39"/>
<path d="M806.25 162.621V159.83H810.992V153.784L814.504 152.271V159.83H820.475V162.621H814.504V181.463C814.504 185.359 814.913 186.288 817.725 186.288C818.892 186.288 819.713 186.23 820.475 186.113V189.138C819.421 189.255 818.25 189.313 817.138 189.313C812.396 189.313 810.992 187.217 810.992 183.613V162.621H806.25Z" fill="#951F39"/>
<path d="M806.668 162.206H811.409V183.615C811.409 186.785 812.384 188.898 817.134 188.898C818.134 188.898 819.134 188.852 820.055 188.765V186.59C819.376 186.669 818.651 186.706 817.726 186.706C814.413 186.706 814.084 185.185 814.084 181.465V162.206H820.055V160.248H814.084V152.902L811.409 154.056V160.248H806.668V162.206ZM817.134 189.727C812.597 189.727 810.576 187.844 810.576 183.615V163.035H805.83V159.415H810.576V153.51L814.922 151.64V159.415H820.893V163.035H814.922V181.465C814.922 185.294 815.288 185.873 817.726 185.873C818.83 185.873 819.634 185.823 820.409 185.702L820.893 185.627V189.51L820.522 189.548C819.472 189.669 818.301 189.727 817.134 189.727Z" fill="#951F39"/>
<path d="M828.317 163.785H828.434C829.896 160.994 833.001 159.252 836.571 159.252V162.798C831.596 162.389 828.317 165.356 828.317 170.298V189.198H824.805V159.831H828.317V163.785Z" fill="#951F39"/>
<path d="M825.224 188.781H827.899V170.298C827.899 167.764 828.72 165.677 830.278 164.252C831.753 162.906 833.774 162.256 836.153 162.356V159.673C832.933 159.802 830.145 161.427 828.808 163.977L828.691 164.202H827.899V160.248H825.224V188.781ZM828.737 189.61H824.387V159.414H828.737V162.523C830.445 160.219 833.337 158.831 836.574 158.831H836.991V163.248L836.537 163.21C834.203 163.01 832.237 163.589 830.845 164.864C829.466 166.127 828.737 168.006 828.737 170.298V189.61Z" fill="#951F39"/>
<path d="M843.011 174.486C843.011 182.161 843.89 186.986 849.686 186.986C855.477 186.986 856.356 182.161 856.356 174.486C856.356 166.869 855.477 162.04 849.686 162.04C843.89 162.04 843.011 166.869 843.011 174.486ZM839.498 177.681V171.344C839.498 163.727 842.777 159.248 849.686 159.248C856.594 159.248 859.869 163.727 859.869 171.344V177.681C859.869 185.302 856.594 189.777 849.686 189.777C842.777 189.777 839.498 185.302 839.498 177.681Z" fill="#951F39"/>
<path d="M849.682 162.456C844.424 162.456 843.428 166.685 843.428 174.485C843.428 182.323 844.424 186.569 849.682 186.569C854.941 186.569 855.941 182.323 855.941 174.485C855.941 166.685 854.941 162.456 849.682 162.456ZM849.682 187.402C843.132 187.402 842.591 181.294 842.591 174.485C842.591 167.71 843.132 161.627 849.682 161.627C856.232 161.627 856.774 167.71 856.774 174.485C856.774 181.294 856.232 187.402 849.682 187.402ZM849.682 159.664C841.607 159.664 839.916 166.014 839.916 171.344V177.681C839.916 183.01 841.607 189.36 849.682 189.36C857.757 189.36 859.449 183.01 859.449 177.681V171.344C859.449 166.014 857.757 159.664 849.682 159.664ZM849.682 190.194C842.745 190.194 839.078 185.869 839.078 177.681V171.344C839.078 163.16 842.745 158.831 849.682 158.831C856.62 158.831 860.286 163.16 860.286 171.344V177.681C860.286 185.869 856.62 190.194 849.682 190.194Z" fill="#951F39"/>
<path d="M870.351 147.215H866.834V189.198H870.351V147.215Z" fill="#951F39"/>
<path d="M867.249 188.781H869.928V147.627H867.249V188.781ZM870.766 189.61H866.416V146.798H870.766V189.61Z" fill="#951F39"/>
<path d="M327.028 235.658C321.991 235.833 314.383 235.249 314.383 242.404C314.383 245.716 316.083 248.449 319.712 248.449C323.749 248.449 327.028 244.849 327.028 241.008V235.658ZM327.262 247.058H327.145C325.274 249.845 322.403 251.241 318.774 251.241C313.503 251.241 310.637 247.695 310.637 242.579C310.637 232.287 321.053 233.333 327.028 232.87V230.424C327.028 226.124 325.741 223.508 321.053 223.508C317.837 223.508 315.262 225.074 315.262 228.566H311.512C311.808 222.924 316.199 220.712 321.349 220.712C324.333 220.712 330.541 221.008 330.541 228.508V243.274C330.541 245.37 330.541 247.229 330.891 250.662H327.262V247.058Z" fill="#951F39"/>
<path d="M326.61 236.087C326.273 236.096 325.927 236.104 325.573 236.112C320.523 236.212 314.798 236.325 314.798 242.404C314.798 245.129 316.09 248.037 319.71 248.037C323.385 248.037 326.61 244.754 326.61 241.008V236.087ZM319.71 248.866C316.165 248.866 313.965 246.391 313.965 242.404C313.965 235.508 320.665 235.375 325.556 235.279C326.06 235.271 326.548 235.258 327.015 235.241L327.448 235.229V241.008C327.448 245.196 323.831 248.866 319.71 248.866ZM321.056 223.091C326.685 223.091 327.448 226.8 327.448 230.425V233.254L327.06 233.283C326.302 233.341 325.473 233.375 324.602 233.416C318.565 233.666 311.052 233.983 311.052 242.579C311.052 247.746 313.94 250.829 318.773 250.829C322.315 250.829 325.015 249.483 326.798 246.829L326.919 246.641H327.681V250.246H330.427C330.123 247.083 330.123 245.312 330.123 243.279V228.508C330.123 221.896 325.115 221.129 321.348 221.129C318.694 221.129 312.56 221.825 311.965 228.15H314.856C315.044 225.016 317.381 223.091 321.056 223.091ZM318.773 251.658C313.494 251.658 310.219 248.179 310.219 242.579C310.219 233.187 318.51 232.837 324.569 232.583C325.281 232.554 325.969 232.525 326.61 232.483V230.425C326.61 225.746 325.052 223.921 321.056 223.921C317.69 223.921 315.681 225.658 315.681 228.566V228.979H311.073L311.094 228.546C311.369 223.304 315.106 220.3 321.348 220.3C323.727 220.3 330.96 220.3 330.96 228.508V243.279C330.96 245.387 330.96 247.208 331.306 250.621L331.352 251.079H326.844V248.154C324.923 250.454 322.156 251.658 318.773 251.658Z" fill="#951F39"/>
<path d="M340.901 250.662H337.389V221.295H340.901V224.899H341.018C342.718 222.458 344.997 220.712 348.16 220.712C355.476 220.712 356.239 226.124 356.239 229.962V250.662H352.726V230.133C352.726 226.704 351.38 223.508 347.28 223.508C344.122 223.508 340.901 225.658 340.901 232.229V250.662Z" fill="#951F39"/>
<path d="M353.143 250.247H355.823V229.964C355.823 225.847 354.952 221.13 348.16 221.13C345.46 221.13 343.239 222.439 341.364 225.139L341.239 225.318H340.485V221.714H337.806V250.247H340.485V232.23C340.485 223.747 345.685 223.093 347.281 223.093C351.006 223.093 353.143 225.659 353.143 230.134V250.247ZM356.656 251.076H352.306V230.134C352.306 227.814 351.652 223.922 347.281 223.922C345.489 223.922 341.318 224.73 341.318 232.23V251.076H336.973V220.88H341.318V223.809C343.218 221.476 345.514 220.297 348.16 220.297C356.656 220.297 356.656 227.572 356.656 229.964V251.076Z" fill="#951F39"/>
<path d="M378.128 238.624V233.39C378.128 231.649 378.128 223.507 371.511 223.507C365.19 223.507 365.19 229.207 365.19 236.065C365.19 246.999 367.824 248.453 371.632 248.453C374.969 248.453 378.128 245.778 378.128 238.624ZM378.303 246.94L378.186 246.999C376.374 249.79 374.149 251.24 370.694 251.24C362.149 251.24 361.678 242.811 361.678 235.953C361.678 230.311 361.678 220.715 370.753 220.715C373.449 220.715 376.078 221.936 377.894 224.203L378.011 224.261V208.678H381.524V244.849C381.524 247.757 381.699 249.674 381.878 250.661H378.478L378.303 246.94Z" fill="#951F39"/>
<path d="M371.512 223.922C365.612 223.922 365.612 229.28 365.612 236.064C365.612 247.135 368.337 248.035 371.633 248.035C375.437 248.035 377.712 244.518 377.712 238.622V233.393C377.712 229.072 376.637 223.922 371.512 223.922ZM371.633 248.868C367.287 248.868 364.774 246.772 364.774 236.064C364.774 229.105 364.774 223.093 371.512 223.093C376.049 223.093 378.545 226.751 378.545 233.393V238.622C378.545 248.13 373.249 248.868 371.633 248.868ZM370.749 221.13C362.095 221.13 362.095 230.41 362.095 235.951C362.095 243.151 362.762 250.826 370.695 250.826C373.853 250.826 375.987 249.618 377.837 246.772L377.899 246.68L378.691 246.28L378.878 250.247H381.391C381.27 249.372 381.108 247.664 381.108 244.847V209.093H378.428V224.935L377.566 224.464C375.87 222.347 373.387 221.13 370.749 221.13ZM370.695 251.66C361.262 251.66 361.262 241.443 361.262 235.951C361.262 230.48 361.262 220.297 370.749 220.297C373.333 220.297 375.778 221.355 377.595 223.235V208.264H381.941V244.847C381.941 248.272 382.183 250.001 382.287 250.593L382.374 251.076H378.083L377.941 248.076C376.058 250.543 373.791 251.66 370.695 251.66Z" fill="#951F39"/>
<path d="M404.527 227.983H411.494C415.415 227.983 417.932 226.12 417.932 219.554C417.932 212.4 414.832 211.816 411.436 211.816H404.527V227.983ZM400.777 208.679H412.373C415.886 208.679 421.677 209.141 421.677 218.854C421.677 227.287 418.927 231.125 411.669 231.125H404.527V250.662H400.777V208.679Z" fill="#951F39"/>
<path d="M404.945 227.568H411.495C414.47 227.568 417.511 226.618 417.511 219.551C417.511 212.785 414.761 212.235 411.432 212.235H404.945V227.568ZM411.495 228.397H404.107V211.401H411.432C414.932 211.401 418.349 212.03 418.349 219.551C418.349 225.672 416.236 228.397 411.495 228.397ZM401.195 250.247H404.107V230.71H411.67C418.482 230.71 421.257 227.272 421.257 218.851C421.257 209.093 415.257 209.093 412.374 209.093H401.195V250.247ZM404.945 251.076H400.361V208.264H412.374C415.282 208.264 422.095 208.264 422.095 218.851C422.095 227.747 418.978 231.539 411.67 231.539H404.945V251.076Z" fill="#951F39"/>
<path d="M429.759 225.25H429.875C431.338 222.459 434.438 220.713 438.013 220.713V224.263C433.034 223.855 429.759 226.821 429.759 231.763V250.663H426.246V221.296H429.759V225.25Z" fill="#951F39"/>
<path d="M426.662 250.247H429.341V231.764C429.341 229.23 430.162 227.139 431.716 225.718C433.187 224.368 435.216 223.714 437.591 223.818V221.139C434.374 221.268 431.583 222.893 430.245 225.443L430.124 225.668H429.341V221.714H426.662V250.247ZM430.174 251.076H425.824V220.88H430.174V223.989C431.887 221.684 434.778 220.297 438.012 220.297H438.428V224.714L437.978 224.676C435.633 224.48 433.67 225.055 432.283 226.33C430.903 227.589 430.174 229.472 430.174 231.764V251.076Z" fill="#951F39"/>
<path d="M457.796 233.916C457.796 227.403 456.742 223.507 451.121 223.507C445.5 223.507 444.45 227.403 444.45 233.916H457.796ZM444.45 236.703V238.974C444.45 243.045 445.563 248.453 451.121 248.453C455.513 248.453 457.679 245.662 457.621 241.707H461.309C460.9 248.799 457.034 251.241 451.121 251.241C446.029 251.241 440.934 249.207 440.934 240.312V233.099C440.934 224.612 444.509 220.716 451.121 220.716C461.309 220.716 461.309 227.982 461.309 236.703H444.45Z" fill="#951F39"/>
<path d="M444.868 233.5H457.376C457.33 227.283 456.268 223.921 451.122 223.921C445.976 223.921 444.909 227.283 444.868 233.5ZM458.213 234.329H444.03V233.916C444.03 227.233 445.218 223.091 451.122 223.091C457.026 223.091 458.213 227.233 458.213 233.916V234.329ZM451.122 221.129C444.547 221.129 441.351 225.046 441.351 233.1V240.312C441.351 247.387 444.547 250.825 451.122 250.825C457.276 250.825 460.38 248.058 460.859 242.121H458.034C457.984 244.154 457.347 245.841 456.18 247.021C454.98 248.229 453.23 248.866 451.122 248.866C446.547 248.866 444.03 245.354 444.03 238.971V236.287H460.888C460.884 227.787 460.73 221.129 451.122 221.129ZM451.122 251.658C444.084 251.658 440.518 247.841 440.518 240.312V233.1C440.518 224.604 444.084 220.3 451.122 220.3C461.726 220.3 461.726 227.9 461.726 236.704V237.121H444.868V238.971C444.868 243.108 445.951 248.037 451.122 248.037C453.03 248.037 454.53 247.496 455.584 246.437C456.672 245.337 457.23 243.708 457.201 241.712L457.197 241.291H461.751L461.726 241.733C461.338 248.408 457.872 251.658 451.122 251.658Z" fill="#951F39"/>
<path d="M475.003 246.242H475.119L482.319 221.296H485.715L476.936 250.663H472.894L464.115 221.296H467.919L475.003 246.242Z" fill="#951F39"/>
<path d="M473.209 250.247H476.621L485.159 221.713H482.638L475.438 246.655H474.688L474.601 246.355L467.605 221.713H464.676L473.209 250.247ZM477.246 251.076H472.584L472.496 250.78L463.555 220.88H468.238L468.321 221.184L475.067 244.93L482.005 220.88H486.276L477.246 251.076Z" fill="#951F39"/>
<path d="M505.384 233.916C505.384 227.403 504.33 223.507 498.709 223.507C493.088 223.507 492.038 227.403 492.038 233.916H505.384ZM492.038 236.703V238.974C492.038 243.045 493.151 248.453 498.709 248.453C503.101 248.453 505.267 245.662 505.209 241.707H508.896C508.488 248.799 504.621 251.241 498.709 251.241C493.617 251.241 488.521 249.207 488.521 240.312V233.099C488.521 224.612 492.096 220.716 498.709 220.716C508.896 220.716 508.896 227.982 508.896 236.703H492.038Z" fill="#951F39"/>
<path d="M492.455 233.5H504.964C504.918 227.283 503.855 223.921 498.71 223.921C493.564 223.921 492.497 227.283 492.455 233.5ZM505.801 234.329H491.618V233.916C491.618 227.233 492.805 223.091 498.71 223.091C504.614 223.091 505.801 227.233 505.801 233.916V234.329ZM498.71 221.129C492.135 221.129 488.939 225.046 488.939 233.1V240.312C488.939 247.387 492.135 250.825 498.71 250.825C504.864 250.825 507.968 248.058 508.447 242.121H505.622C505.572 244.154 504.935 245.841 503.768 247.021C502.568 248.229 500.818 248.866 498.71 248.866C494.135 248.866 491.618 245.354 491.618 238.971V236.287H508.476C508.472 227.787 508.318 221.129 498.71 221.129ZM498.71 251.658C491.672 251.658 488.105 247.841 488.105 240.312V233.1C488.105 224.604 491.672 220.3 498.71 220.3C509.314 220.3 509.314 227.9 509.314 236.704V237.121H492.455V238.971C492.455 243.108 493.539 248.037 498.71 248.037C500.618 248.037 502.118 247.496 503.172 246.437C504.26 245.337 504.818 243.708 504.789 241.712L504.785 241.291H509.339L509.314 241.733C508.926 248.408 505.46 251.658 498.71 251.658Z" fill="#951F39"/>
<path d="M518.202 250.662H514.689V221.295H518.202V224.899H518.323C520.014 222.458 522.298 220.712 525.46 220.712C532.777 220.712 533.539 226.124 533.539 229.962V250.662H530.027V230.133C530.027 226.704 528.681 223.508 524.581 223.508C521.423 223.508 518.202 225.658 518.202 232.229V250.662Z" fill="#951F39"/>
<path d="M530.445 250.247H533.12V229.964C533.12 225.847 532.249 221.13 525.457 221.13C522.757 221.13 520.536 222.439 518.665 225.134L518.536 225.318H517.782V221.714H515.107V250.247H517.782V232.23C517.782 223.747 522.986 223.093 524.582 223.093C528.307 223.093 530.445 225.659 530.445 230.134V250.247ZM533.953 251.076H529.607V230.134C529.607 227.814 528.953 223.922 524.582 223.922C522.786 223.922 518.62 224.73 518.62 232.23V251.076H514.27V220.88H518.62V223.809C520.515 221.476 522.811 220.297 525.457 220.297C533.953 220.297 533.953 227.572 533.953 229.964V251.076Z" fill="#951F39"/>
<path d="M537.457 224.086V221.299H542.199V215.249L545.711 213.736V221.299H551.682V224.086H545.711V242.928C545.711 246.824 546.124 247.757 548.932 247.757C550.103 247.757 550.924 247.695 551.682 247.578V250.603C550.632 250.72 549.457 250.778 548.349 250.778C543.603 250.778 542.199 248.682 542.199 245.078V224.086H537.457Z" fill="#951F39"/>
<path d="M537.877 223.671H542.618V245.079C542.618 248.25 543.593 250.363 548.347 250.363C549.331 250.363 550.352 250.317 551.264 250.229V248.054C550.589 248.134 549.86 248.171 548.935 248.171C545.627 248.171 545.297 246.654 545.297 242.929V223.671H551.264V221.713H545.297V214.371L542.618 215.521V221.713H537.877V223.671ZM548.347 251.196C543.81 251.196 541.785 249.309 541.785 245.079V224.5H537.039V220.884H541.785V214.975L546.131 213.104V220.884H552.102V224.5H546.131V242.929C546.131 246.763 546.497 247.342 548.935 247.342C550.039 247.342 550.843 247.288 551.622 247.171L552.102 247.096V250.975L551.731 251.013C550.681 251.134 549.514 251.196 548.347 251.196Z" fill="#951F39"/>
<path d="M556.954 221.298H560.466V250.664H556.954V221.298ZM556.541 208.677H560.874V213.093H556.541V208.677Z" fill="#951F39"/>
<path d="M556.959 212.681H560.454V209.094H556.959V212.681ZM561.292 213.515H556.121V208.265H561.292V213.515ZM557.371 250.248H560.046V221.715H557.371V250.248ZM560.884 251.077H556.534V220.881H560.884V251.077Z" fill="#951F39"/>
<path d="M570.938 235.95C570.938 243.625 571.817 248.45 577.613 248.45C583.409 248.45 584.288 243.625 584.288 235.95C584.288 228.334 583.409 223.505 577.613 223.505C571.817 223.505 570.938 228.334 570.938 235.95ZM567.426 239.146V232.809C567.426 225.192 570.705 220.713 577.613 220.713C584.522 220.713 587.801 225.192 587.801 232.809V239.146C587.801 246.767 584.522 251.242 577.613 251.242C570.705 251.242 567.426 246.767 567.426 239.146Z" fill="#951F39"/>
<path d="M577.616 223.922C572.358 223.922 571.358 228.151 571.358 235.951C571.358 243.789 572.358 248.034 577.616 248.034C582.874 248.034 583.87 243.789 583.87 235.951C583.87 228.151 582.874 223.922 577.616 223.922ZM577.616 248.868C571.066 248.868 570.52 242.759 570.52 235.951C570.52 229.176 571.066 223.093 577.616 223.093C584.166 223.093 584.708 229.176 584.708 235.951C584.708 242.759 584.166 248.868 577.616 248.868ZM577.616 221.13C569.541 221.13 567.845 227.48 567.845 232.809V239.147C567.845 244.476 569.541 250.826 577.616 250.826C585.687 250.826 587.383 244.476 587.383 239.147V232.809C587.383 227.48 585.687 221.13 577.616 221.13ZM577.616 251.659C570.679 251.659 567.008 247.334 567.008 239.147V232.809C567.008 224.626 570.679 220.297 577.616 220.297C584.554 220.297 588.22 224.626 588.22 232.809V239.147C588.22 247.334 584.554 251.659 577.616 251.659Z" fill="#951F39"/>
<path d="M597.107 250.662H593.59V221.295H597.107V224.899H597.223C598.919 222.458 601.202 220.712 604.365 220.712C611.682 220.712 612.444 226.124 612.444 229.962V250.662H608.932V230.133C608.932 226.704 607.586 223.508 603.486 223.508C600.323 223.508 597.107 225.658 597.107 232.229V250.662Z" fill="#951F39"/>
<path d="M609.349 250.247H612.024V229.964C612.024 225.847 611.153 221.13 604.365 221.13C601.665 221.13 599.44 222.439 597.57 225.134L597.445 225.318H596.69V221.714H594.011V250.247H596.69V232.23C596.69 223.747 601.89 223.093 603.486 223.093C607.211 223.093 609.349 225.659 609.349 230.134V250.247ZM612.861 251.076H608.511V230.134C608.511 227.814 607.861 223.922 603.486 223.922C601.695 223.922 597.524 224.73 597.524 232.23V251.076H593.174V220.88H597.524V223.809C599.42 221.476 601.715 220.297 604.365 220.297C612.861 220.297 612.861 227.572 612.861 229.964V251.076Z" fill="#951F39"/>
</g>
<defs>
<clipPath id="clip0_387_585">
<rect width="997" height="252" fill="white"/>
</clipPath>
</defs>
</svg>
